<svg width="600" height="600" viewBox="0 0 600 600" fill="none" xmlns="http://www.w3.org/2000/svg">
<rect width="600" height="600" rx="6" fill="white"/>
<path d="M22.3817 394.78V400.901C22.3801 421.55 30.5826 441.353 45.1841 455.954C59.7857 470.554 79.5898 478.755 100.239 478.752H131.832C140.702 478.755 147.89 485.947 147.89 494.816V554.739H416.424V494.816C416.421 488.205 420.474 482.269 426.632 479.863C428.504 479.124 430.499 478.746 432.512 478.752H485.632C486.467 478.752 487.302 478.74 488.137 478.717C506.328 478.17 523.801 471.49 537.717 459.76C539.492 458.266 541.2 456.698 542.838 455.056C565.982 431.917 572.908 397.115 560.386 366.878C547.863 336.642 518.358 316.928 485.632 316.929H423.274C415.679 317.056 408.606 313.076 404.772 306.519C400.937 299.962 400.937 291.847 404.772 285.29C408.606 278.733 415.679 274.754 423.274 274.881H528.456C555.607 274.881 577.618 252.87 577.618 225.718C577.618 198.566 555.607 176.555 528.456 176.555C505.953 176.555 487.71 158.315 487.707 135.813V94.3C487.709 90.0401 486.018 85.9541 483.006 82.9413C479.994 79.9285 475.909 78.2359 471.649 78.2359H97.334C79.6428 78.0424 63.2121 87.3696 54.3102 102.659C45.4082 117.949 45.4082 136.842 54.3102 152.132C63.2121 167.422 79.6428 176.749 97.334 176.555H137.318C153.098 176.555 165.892 189.346 165.895 205.126C165.892 220.906 153.098 233.697 137.318 233.697C136.795 233.697 136.277 233.697 135.76 233.732C115.91 234.565 100.251 250.909 100.268 270.776V296.06C100.27 307.471 92.7828 317.53 81.852 320.803C66.8227 325.302 46.0546 334.786 33.4537 354.319C30.1207 359.505 27.5262 365.129 25.745 371.03C23.4492 378.736 22.3156 386.74 22.3817 394.78Z" fill="#F3F4FE"/>
<rect x="42.6383" y="60.7546" width="503.275" height="287.938" rx="17.7" fill="#D2D6FA"/>
<rect x="275.533" y="110.458" width="239.122" height="210.833" rx="28.4" fill="#F3F4FE"/>
<path d="M336.532 191.449L379.127 182.535C379.74 185.467 380.049 188.454 380.05 191.449C380.05 215.322 360.405 234.961 336.538 234.961C312.671 234.961 293.026 215.316 293.026 191.449C293.026 167.583 312.671 147.938 336.538 147.938L336.532 191.449Z" fill="#BCBFF6"/>
<path d="M336.532 191.449L327.636 148.884C330.57 148.271 333.559 147.962 336.556 147.961C360.429 147.961 380.068 167.606 380.068 191.473C380.068 215.34 360.423 234.985 336.556 234.985C312.689 234.985 293.044 215.34 293.044 191.473L336.532 191.449Z" fill="#D2D6FA"/>
<rect x="392.193" y="167.641" width="24.6313" height="13.965" rx="6.9825" fill="#D2D6FA"/>
<rect x="422.81" y="167.641" width="76.981" height="13.965" rx="6.9825" fill="#D2D6FA"/>
<rect x="423.862" y="187.122" width="44.6586" height="13.965" rx="6.9825" fill="#D2D6FA"/>
<rect x="422.81" y="205.644" width="76.981" height="13.965" rx="6.9825" fill="#D2D6FA"/>
<rect x="293.015" y="258.276" width="206.776" height="13.965" rx="6.9825" fill="#D2D6FA"/>
<rect x="293.015" y="278.109" width="206.776" height="22.2029" rx="11.1014" fill="#D2D6FA"/>
<rect x="392.193" y="205.644" width="24.6313" height="13.965" rx="6.9825" fill="#D2D6FA"/>
<rect x="79.012" y="106.971" width="145.695" height="55.6072" rx="11.38" fill="#BCBFF6"/>
<rect x="84.8214" y="114.521" width="50.1799" height="40.5132" rx="5.7" fill="#F3F4FE"/>
<rect x="93.7237" y="136.742" width="4.81572" height="15.976" rx="2.40786" fill="#D2D6FA"/>
<rect x="101.885" y="130.603" width="4.81572" height="22.1147" rx="2.40786" fill="#D2D6FA"/>
<rect x="110.123" y="123.765" width="4.81572" height="28.9531" rx="2.40786" fill="#D2D6FA"/>
<rect x="120.66" y="118.561" width="4.81572" height="34.1569" rx="2.40786" fill="#D2D6FA"/>
<rect x="143.498" y="121.46" width="73.9057" height="5.439" rx="2.7195" fill="#F3F4FE"/>
<rect x="143.498" y="133.084" width="49.6742" height="5.439" rx="2.7195" fill="#F3F4FE"/>
<path d="M53.04 60.7546H535.506C541.254 60.7546 545.913 65.4143 545.913 71.1622V85.3801H42.6383V71.1622C42.6383 65.4166 47.2943 60.7579 53.04 60.7546V60.7546Z" fill="#BCBFF6"/>
<circle cx="109.253" cy="73.0675" r="5.9388" fill="white"/>
<circle cx="87.0734" cy="73.0675" r="5.9388" fill="white"/>
<circle cx="131.426" cy="73.0675" r="5.9388" fill="white"/>
<rect x="79.012" y="214.899" width="61.4342" height="106.587" rx="27.69" fill="#BCBFF6"/>
<rect x="151.13" y="260.451" width="61.4342" height="61.0285" rx="20.95" fill="#BCBFF6"/>
<rect x="223.531" y="283.213" width="40.9189" height="38.2729" rx="13.54" fill="#BCBFF6"/>
<rect x="87.0029" y="565.094" width="43.5473" height="10.3547" rx="5.17734" transform="rotate(-180 87.0029 565.094)" fill="#D2D6FA"/>
<rect x="567.464" y="565.094" width="476.245" height="10.3547" rx="5.17734" transform="rotate(-180 567.464 565.094)" fill="#D2D6FA"/>
<path d="M155.395 156.279C156.355 159.161 154.796 162.276 151.914 163.236C149.032 164.196 145.917 162.637 144.957 159.755L139.547 143.51C138.587 140.627 140.145 137.512 143.027 136.553C145.91 135.593 149.025 137.151 149.985 140.033L155.395 156.279Z" fill="#F9A0B4"/>
<circle cx="146.044" cy="160.644" r="10.8368" fill="#F9A0B4"/>
<path d="M323.62 554.728H277.133C277.133 541.89 287.539 531.484 300.376 531.484C313.213 531.484 323.62 541.89 323.62 554.728Z" fill="#33557A"/>
<path d="M256.976 554.728H210.489C210.489 541.89 220.895 531.484 233.732 531.484C246.569 531.484 256.976 541.89 256.976 554.728Z" fill="#33557A"/>
<path d="M250.285 334.539V554.722H217.174V350.686C217.174 341.76 221.925 334.516 227.758 334.516L250.285 334.539Z" fill="#FFB2BF"/>
<path d="M217.174 502.619H250.285V554.727H217.174V502.619Z" fill="#D5E6BC"/>
<path d="M217.174 502.619H225.453V554.727H217.174V502.619Z" fill="#C3D3A7"/>
<path d="M233.732 502.619H242.011V554.727H233.732V502.619Z" fill="#C3D3A7"/>
<path d="M217.174 495.393H250.285V502.613H217.174V495.393Z" fill="#F9A0B4"/>
<path d="M318.381 546.313H284.712L275.657 498.244L255.9 393.233L250.273 363.281L248.791 355.384C247.862 350.451 248.509 345.764 250.273 342.413C251.649 339.808 253.701 338.008 256.218 337.538L278.338 333.375L289.592 393.233L308.185 492.135L318.381 546.313Z" fill="#FFB2BF"/>
<path d="M318.381 546.313H284.7L275.657 498.244L308.197 492.135L318.381 546.313Z" fill="#D5E6BC"/>
<path d="M275.653 498.252L283.787 496.711L293.489 547.908L285.355 549.449L275.653 498.252Z" fill="#C3D3A7"/>
<path d="M291.918 495.172L300.052 493.63L309.754 544.828L301.619 546.369L291.918 495.172Z" fill="#C3D3A7"/>
<path d="M307.074 486.408L274.604 492.723L275.657 498.244L308.197 492.135L307.074 486.408Z" fill="#F9A0B4"/>
<path d="M289.604 393.233H255.9L250.273 363.281V393.233H217.174V350.709C217.174 341.783 221.925 334.539 227.758 334.539H250.273V342.413C251.649 339.808 253.701 338.008 256.218 337.538L278.338 333.375L289.604 393.233Z" fill="#F9A0B4"/>
<path d="M210.142 545.425L256.523 540.292C258.569 540.065 260.614 540.719 262.147 542.092C263.68 543.465 264.556 545.425 264.555 547.483C264.555 551.481 261.315 554.722 257.317 554.722H210.653C208.078 554.722 205.991 552.634 205.991 550.059C205.991 547.682 207.779 545.686 210.142 545.425Z" fill="#55A4AB"/>
<path d="M264.549 547.489C264.551 549.408 263.79 551.249 262.433 552.605C261.076 553.962 259.236 554.723 257.317 554.722H245.763C249.084 554.729 251.983 552.473 252.792 549.253C253.602 546.032 252.114 542.674 249.185 541.11L256.523 540.292C258.569 540.066 260.613 540.723 262.145 542.096C263.678 543.47 264.552 545.432 264.549 547.489Z" fill="#33557A"/>
<path d="M276.786 545.425L323.167 540.292C325.212 540.065 327.258 540.719 328.791 542.092C330.324 543.465 331.2 545.425 331.199 547.483C331.199 551.481 327.959 554.722 323.961 554.722H277.297C274.722 554.722 272.634 552.634 272.634 550.059C272.635 547.682 274.423 545.686 276.786 545.425Z" fill="#55A4AB"/>
<path d="M331.199 547.489C331.196 551.485 327.956 554.722 323.961 554.722H312.413C315.733 554.726 318.629 552.47 319.437 549.25C320.245 546.03 318.757 542.673 315.829 541.11L323.167 540.292C325.213 540.066 327.258 540.722 328.791 542.096C330.324 543.47 331.2 545.431 331.199 547.489Z" fill="#33557A"/>
<path d="M229.193 267.266C223.242 272.565 214.219 272.403 208.46 266.896C208.16 266.613 207.872 266.308 207.59 266.002L198.652 255.959L133.255 182.459C127.637 176.147 128.199 166.477 134.51 160.859C140.822 155.241 150.492 155.803 156.111 162.114L206.126 218.327L219.126 232.968L230.445 245.692C236.053 251.997 235.492 261.653 229.193 267.266Z" fill="#FFB2BF"/>
<path d="M230.445 245.669L219.126 232.968L206.126 218.356C206.126 218.503 206.091 218.638 206.073 218.78C206.073 218.78 209.254 230.304 198.652 255.982L207.59 266.025C207.866 266.337 208.178 266.613 208.46 266.919C214.38 272.669 223.794 272.684 229.731 266.952C235.668 261.219 235.984 251.81 230.445 245.692V245.669Z" fill="#F9A0B4"/>
<path d="M304.622 303.91C301.069 305.875 296.88 306.345 292.979 305.218C289.079 304.091 285.787 301.458 283.83 297.901L276.539 284.712L272.17 276.792L259.199 253.272C255.162 245.969 257.727 236.779 264.961 232.621L265.202 232.486C268.753 230.525 272.939 230.055 276.836 231.181C280.734 232.307 284.024 234.936 285.982 238.489L287.881 241.923L310.619 283.136C312.579 286.686 313.048 290.869 311.923 294.765C310.799 298.661 308.172 301.951 304.622 303.91Z" fill="#FFB2BF"/>
<path d="M348.373 275.11C356.821 275.07 363.702 281.887 363.742 290.335C363.782 298.783 356.966 305.664 348.517 305.703L297.521 305.944C289.073 305.984 282.192 299.167 282.152 290.719C282.112 282.271 288.928 275.39 297.377 275.35L348.373 275.11Z" fill="#FFB2BF"/>
<ellipse cx="354.582" cy="286.823" rx="20.5271" ry="16.1876" transform="rotate(-50.27 354.582 286.823)" fill="#FFB2BF"/>
<path opacity="0.38" d="M367.691 271C361.176 265.584 350.539 267.472 343.277 275.151L306.315 275.328L285.982 238.478C282.811 232.703 276.298 229.61 269.819 230.8C263.339 231.991 258.351 237.198 257.441 243.723C259.915 238.553 265.074 235.202 270.804 235.042C276.533 234.882 281.87 237.94 284.63 242.964L302.517 275.363L304.963 279.808H308.767L339.861 279.661H341.924C343.594 277.88 345.516 276.352 347.628 275.128C354.055 271.464 361.405 271.341 366.362 275.463C370.589 278.991 372.106 284.759 370.948 290.751C374.017 283.33 372.977 275.398 367.691 271Z" fill="#F9E0E5"/>
<path d="M334.773 270.167C336.04 270.161 337.071 271.183 337.077 272.45L337.247 308.476C337.253 309.743 336.231 310.774 334.965 310.78C333.698 310.786 332.667 309.764 332.661 308.498L332.491 272.471C332.485 271.205 333.507 270.173 334.773 270.167Z" fill="#55A4AB"/>
<path d="M329.102 272.861C330.368 272.855 331.4 273.877 331.406 275.144L331.552 306.207C331.558 307.474 330.536 308.505 329.27 308.511C328.003 308.517 326.972 307.496 326.966 306.229L326.819 275.165C326.813 273.899 327.835 272.867 329.102 272.861Z" fill="#55A4AB"/>
<path d="M224.413 272.729V307.961C224.413 321.143 235.098 331.828 248.28 331.828C261.461 331.828 272.146 321.143 272.146 307.961V272.729L224.413 272.729Z" fill="#FDA541"/>
<path d="M239.271 202.545V239.001C239.275 243.656 243.048 247.43 247.703 247.433H248.844C253.502 247.433 257.279 243.659 257.282 239.001V202.545C257.283 200.306 256.395 198.158 254.813 196.575C253.23 194.991 251.083 194.101 248.844 194.101H247.697C243.04 194.108 239.268 197.887 239.271 202.545H239.271Z" fill="#FFB2BF"/>
<path d="M283.707 266.66V267.972C283.703 277.589 275.908 285.385 266.29 285.388H228.911C219.294 285.385 211.5 277.588 211.5 267.972V266.66C211.505 257.087 215.312 247.908 222.084 241.141C223.251 239.977 224.494 238.893 225.806 237.896C236.728 229.611 251.401 228.228 263.679 234.326C275.957 240.425 283.72 252.952 283.718 266.66H283.707Z" fill="#FDA541"/>
<path d="M277.785 246.851C273.021 239.631 265.839 234.346 257.529 231.945C260.21 233.171 262.733 234.717 265.043 236.549C273.698 243.386 278.744 253.809 278.738 264.838V266.143C278.73 273.502 274.106 280.065 267.178 282.548V306.139C267.172 313.472 263.798 320.397 258.026 324.921C252.254 329.444 244.724 331.065 237.601 329.318C245.002 333.019 253.792 332.624 260.831 328.273C267.87 323.922 272.154 316.237 272.152 307.962V284.377C279.08 281.895 283.703 275.331 283.707 267.972V266.661C283.72 259.619 281.661 252.73 277.785 246.851Z" fill="#FFBA76"/>
<path d="M270.012 238.378C263.925 242.117 256.972 244.214 249.832 244.464C249.314 244.493 248.797 244.499 248.274 244.499C247.415 244.499 246.557 244.469 245.716 244.417C238.623 243.995 231.759 241.749 225.789 237.896C238.914 227.95 257.107 228.148 270.012 238.378Z" fill="#FFB2BF"/>
<circle cx="273.581" cy="185.175" r="8.92584" fill="#F9A0B4"/>
<circle cx="225.794" cy="185.175" r="8.92584" fill="#F9A0B4"/>
<path d="M290.386 381.462H210.418C207.813 381.463 205.336 380.332 203.632 378.362C201.927 376.392 201.164 373.779 201.539 371.201C205.114 347.222 206.679 305.157 250.279 305.157C293.367 305.157 296.484 348.234 299.283 371.418C299.59 373.965 298.793 376.521 297.093 378.44C295.392 380.36 292.951 381.46 290.386 381.462Z" fill="#55A4AB"/>
<path d="M290.392 381.456H275.257C277.822 381.457 280.265 380.36 281.967 378.441C283.669 376.522 284.467 373.965 284.159 371.418C281.525 349.662 278.626 310.366 242.635 305.633C245.17 305.312 247.723 305.155 250.279 305.163C293.373 305.163 296.484 348.24 299.283 371.418C299.59 373.963 298.794 376.518 297.094 378.436C295.395 380.355 292.955 381.454 290.392 381.456Z" fill="#6FBFC1"/>
<rect x="220.244" y="147.132" width="57.4594" height="133.688" rx="28.7297" fill="#652138"/>
<rect x="215.428" y="191.449" width="67.079" height="89.3701" rx="33.5395" fill="#652138"/>
<path d="M277.703 205.92V175.862C277.706 168.24 274.681 160.929 269.292 155.539C263.904 150.149 256.595 147.12 248.973 147.12C247.914 147.119 246.856 147.178 245.804 147.297C260.353 148.914 271.361 161.211 271.364 175.85V205.92C274.511 210.884 276.177 216.642 276.168 222.519V249.808C276.157 266.185 263.424 279.734 247.08 280.761C246.657 280.761 246.233 280.69 245.816 280.643C245.398 280.69 244.975 280.731 244.546 280.761C243.917 280.802 243.287 280.82 242.646 280.82H251.466C259.7 280.821 267.597 277.551 273.419 271.73C279.242 265.909 282.513 258.013 282.513 249.779V222.49C282.516 216.622 280.848 210.874 277.703 205.92Z" fill="#7A314D"/>
<rect x="247.286" y="216.927" width="20.0096" height="38.414" rx="10.0048" fill="#7A314D"/>
<circle cx="250.285" cy="158.38" r="15.5644" fill="#FDA541"/>
<circle cx="250.285" cy="149.931" r="19.7274" fill="#7A314D"/>
<path d="M270.012 149.925C270.009 160.822 261.176 169.655 250.279 169.658C249.482 169.661 248.687 169.61 247.897 169.505C257.807 168.313 265.264 159.906 265.264 149.925C265.264 139.944 257.807 131.536 247.897 130.345C248.687 130.245 249.483 130.196 250.279 130.198C261.175 130.198 270.009 139.029 270.012 149.925Z" fill="#8E4463"/>
<ellipse cx="140.444" cy="163.986" rx="17.299" ry="20.5271" transform="rotate(-36.25 140.444 163.986)" fill="#FFB2BF"/>
<path d="M154.364 157.868C156.234 160.262 155.808 163.719 153.414 165.589C151.02 167.459 147.563 167.034 145.693 164.64L121.831 134.087C119.961 131.693 120.386 128.236 122.781 126.366C125.175 124.496 128.632 124.921 130.502 127.315L154.364 157.868Z" fill="#FFB2BF"/>
<ellipse opacity="0.38" cx="354.58" cy="290.423" rx="8.8494" ry="6.06816" transform="rotate(-50.27 354.58 290.423)" fill="#F9E0E5"/>
<path d="M450.182 464.024C455.221 476.25 449.401 490.246 437.179 495.294L425.1 500.272C420.058 488.041 425.887 474.038 438.119 468.996L450.182 464.024H450.182Z" fill="#969ECC"/>
<path d="M419.366 440.671C431.598 445.712 437.427 459.715 432.385 471.947L427.406 484.027C415.174 478.985 409.346 464.982 414.387 452.75L419.366 440.671Z" fill="#7986BF"/>
<path d="M425.131 500.271L413.051 495.292C400.82 490.25 394.991 476.247 400.032 464.016L412.128 469.001C424.35 474.049 430.17 488.045 425.131 500.271Z" fill="#969ECC"/>
<path d="M466.992 511.598C466.717 535.087 447.597 553.984 424.106 553.984C400.615 553.984 381.495 535.087 381.22 511.598C381.218 509.945 381.314 508.294 381.509 506.653C381.722 504.762 382.064 502.888 382.532 501.043H465.681C466.151 502.887 466.493 504.761 466.704 506.653C466.901 508.294 466.997 509.945 466.992 511.598Z" fill="#969ECC"/>
<rect x="375.952" y="489.818" width="98.3018" height="11.2249" rx="5.61246" fill="#7986BF"/>
<path d="M466.704 506.653H381.509C381.722 504.762 382.064 502.888 382.532 501.043H465.681C466.151 502.887 466.493 504.761 466.704 506.653Z" fill="#7986BF"/>
</svg>
