<svg width="488" height="410" viewBox="0 0 488 410" fill="none" xmlns="http://www.w3.org/2000/svg">
<path d="M473.247 345.393C482.073 354.229 485.017 367.361 480.807 379.12C480.393 380.277 479.912 381.409 479.367 382.511C475.251 390.819 467.767 396.96 458.816 399.377C457.528 399.727 456.219 399.994 454.896 400.175C453.425 400.378 451.942 400.48 450.457 400.479H46.4418C38.924 400.487 31.6415 397.858 25.8618 393.051C25.0876 392.414 24.3461 391.739 23.6372 391.027C23.2403 390.63 22.8483 390.223 22.471 389.802C21.981 389.268 21.5253 388.719 21.0843 388.151C19.7021 386.401 18.5081 384.511 17.522 382.511C17.3897 382.246 17.2623 381.982 17.1398 381.712C16.7478 380.863 16.395 379.999 16.0814 379.12C12.3087 368.671 14.1865 357.015 21.05 348.279C21.491 347.711 21.9565 347.162 22.4367 346.628C28.5485 339.817 37.2711 335.931 46.4222 335.941H88.4936C89.0228 335.941 89.5471 335.922 90.0665 335.882C91.3996 335.787 92.7206 335.564 94.011 335.216C95.1371 334.915 96.2354 334.518 97.294 334.03C99.5936 332.976 101.687 331.521 103.478 329.733C107.464 325.771 109.706 320.384 109.706 314.763C109.707 313.961 109.661 313.159 109.569 312.362C108.581 303.725 102.423 296.565 94.0306 294.296C92.74 293.949 91.4191 293.726 90.0861 293.63C89.5667 293.591 89.0424 293.571 88.5132 293.571H81.908C78.2296 293.574 74.5625 293.163 70.9761 292.346H70.9418L70.6919 292.287C70.4175 292.228 70.148 292.16 69.8785 292.091L69.4767 291.988C69.1239 291.895 68.7711 291.802 68.4232 291.699C68.0753 291.596 67.8352 291.528 67.5461 291.435C65.3464 290.766 63.1979 289.939 61.1173 288.96C60.6567 288.744 60.1961 288.524 59.7453 288.289C59.0005 287.911 58.2753 287.519 57.5501 287.103C56.1944 286.329 54.8878 285.489 53.6301 284.584C52.5717 283.835 51.5476 283.041 50.5529 282.213C49.4161 281.269 48.325 280.272 47.2797 279.224C38.7169 270.701 33.6189 259.306 32.9717 247.241C32.9521 246.879 32.9374 246.516 32.9276 246.154C32.9276 245.62 32.8982 245.081 32.8982 244.546C32.8982 244.311 32.8982 244.056 32.8982 243.846C32.9247 241.879 33.0687 239.915 33.3294 237.966C35.1449 224.491 42.4877 212.379 53.5958 204.538C54.7979 203.682 56.0376 202.883 57.3149 202.142C57.3884 202.098 57.4619 202.054 57.5403 202.014C59.7375 200.748 62.0313 199.657 64.4003 198.751C65.4293 198.354 66.473 197.996 67.5314 197.668C68.5898 197.34 69.7805 197.026 70.9271 196.767C74.5243 195.943 78.2031 195.529 81.8933 195.532H117.987C122.467 195.529 126.836 194.137 130.492 191.548C131.479 190.844 132.407 190.059 133.265 189.201C137.013 185.459 139.252 180.469 139.557 175.182C139.581 174.766 139.596 174.344 139.596 173.918C139.594 167.358 136.614 161.155 131.496 157.052C131.168 156.787 130.835 156.562 130.492 156.297C129.261 155.417 127.938 154.673 126.547 154.078C126.209 153.926 125.866 153.789 125.518 153.661C123.109 152.762 120.558 152.304 117.987 152.309H52.0572C45.966 152.324 39.9211 151.252 34.2065 149.143C32.1919 148.398 30.2278 147.522 28.3265 146.522C27.4837 146.081 26.6556 145.619 25.8422 145.135C24.6825 144.446 23.5523 143.711 22.4514 142.93C21.9614 142.597 21.5204 142.259 21.0647 141.911C19.7009 140.871 18.3924 139.761 17.1447 138.584C16.7037 138.177 16.2725 137.761 15.8462 137.334C8.88143 130.388 4.06831 121.58 1.9841 111.967C1.9253 111.709 1.8714 111.449 1.8224 111.188C1.646 110.326 1.4941 109.458 1.3667 108.576C1.00401 106.094 0.822231 103.588 0.822801 101.079C0.822801 100.883 0.822801 100.687 0.822801 100.491C0.937595 88.8165 5.05405 77.5343 12.4848 68.5287C12.9454 67.9701 13.4207 67.4164 13.9058 66.8774C14.5232 66.1816 15.1651 65.5054 15.8217 64.8488C16.248 64.4225 16.6792 64.006 17.1202 63.5993L17.2476 63.4817C17.6151 63.1387 17.9826 62.8055 18.3599 62.4772C19.2354 61.7095 20.137 60.9745 21.0647 60.2722C21.5204 59.9243 21.981 59.5862 22.4514 59.253C22.9218 58.9198 23.304 58.6601 23.7352 58.371C24.4261 57.9104 25.1268 57.4645 25.8422 57.0431L26.1901 56.8373C26.8908 56.4257 27.6062 56.0288 28.3265 55.6564C30.2269 54.6561 32.1912 53.782 34.2065 53.0398C39.9176 50.9145 45.9635 49.8308 52.0572 49.8401C52.5744 49.8396 53.0913 49.8118 53.6056 49.7568C54.9545 49.6106 56.275 49.2689 57.5256 48.7425C60.935 47.3322 63.667 44.6582 65.15 41.2798C65.7305 39.9547 66.104 38.5484 66.2574 37.1099C66.3084 36.6592 66.3345 36.2061 66.3358 35.7526C66.3358 35.6889 66.3358 35.6252 66.3358 35.5615V25.3646C66.3333 23.0038 66.6733 20.6551 67.3452 18.3919C67.4089 18.1812 67.4726 17.9705 67.5412 17.7647C70.5726 8.45853 78.8625 1.85748 88.6112 0.987095C89.1012 0.942995 89.5912 0.913595 90.0812 0.898895H90.8113H234.381C234.925 0.898895 235.459 0.898895 235.993 0.952795C237.322 1.03473 238.642 1.22815 239.938 1.531C244.21 2.52679 248.135 4.65434 251.301 7.69029C251.433 7.81279 251.561 7.9402 251.688 8.0676C256.083 12.4533 258.64 18.3503 258.837 24.5561V25.3744C258.837 25.3744 258.837 25.8644 258.837 26.0702C258.87 27.2202 258.984 28.3665 259.18 29.5002C259.219 29.7403 259.268 29.9902 259.313 30.2205C259.406 30.6762 259.513 31.1319 259.626 31.5778C260.003 33.011 260.509 34.4068 261.14 35.7477C261.356 36.2083 261.586 36.664 261.826 37.105C261.939 37.3157 262.057 37.5215 262.179 37.7273C262.913 38.9836 263.759 40.171 264.707 41.2749C265.406 42.0926 266.159 42.862 266.961 43.5779C267.319 43.9013 267.687 44.21 268.059 44.5138C269.425 45.5963 270.904 46.5294 272.469 47.297C272.778 47.4538 273.091 47.6008 273.41 47.7429C276.532 49.128 279.911 49.8409 283.327 49.8352H354.941C356.347 49.8352 357.734 49.9087 359.106 50.0459C364.059 50.55 368.876 51.9636 373.316 54.2158C376.412 55.7896 379.295 57.7506 381.896 60.0517C382.131 60.2624 382.361 60.4682 382.592 60.6838C382.822 60.8994 382.979 61.0415 383.165 61.2277C383.591 61.6344 384.003 62.046 384.395 62.4723C384.552 62.6242 384.694 62.781 384.836 62.9623C384.856 62.9746 384.872 62.9914 384.885 63.0113C385.037 63.173 385.184 63.3347 385.321 63.5013C385.458 63.6679 385.674 63.8933 385.84 64.0942C386.085 64.3735 386.33 64.6577 386.556 64.9468C386.732 65.1575 386.904 65.3731 387.046 65.5936C387.188 65.8141 387.374 66.015 387.536 66.2306C387.697 66.4462 387.869 66.6716 388.026 66.897C388.098 66.9885 388.166 67.0816 388.231 67.1763C388.55 67.6271 388.859 68.0828 389.158 68.5483C389.354 68.857 389.55 69.1657 389.741 69.4793C390.074 70.0281 390.392 70.5867 390.721 71.1502C391.162 71.9669 391.577 72.7999 391.965 73.6492C392.315 74.4038 392.641 75.1715 392.945 75.9522C393.472 77.3142 393.922 78.7047 394.293 80.1172C394.499 80.8767 394.68 81.646 394.837 82.4202C395.119 83.7979 395.327 85.1899 395.459 86.5901C395.591 87.9171 395.657 89.25 395.655 90.5836V124.055C395.652 131.138 398.465 137.931 403.474 142.938C408.483 147.945 415.278 150.756 422.36 150.751H463.094C467.113 150.753 471.067 151.764 474.594 153.691C476.309 154.626 477.904 155.765 479.347 157.081C479.617 157.326 479.881 157.571 480.136 157.836C480.735 158.435 481.302 159.065 481.836 159.723C488.983 168.564 488.983 181.197 481.836 190.039C481.302 190.696 480.735 191.326 480.136 191.925C476.388 195.686 471.499 198.099 466.235 198.785C465.193 198.923 464.144 198.992 463.094 198.991C461.653 198.992 460.219 199.196 458.836 199.599C457.448 200.008 456.127 200.617 454.916 201.407C454.538 201.647 454.176 201.897 453.823 202.176C450.137 205.043 447.983 209.453 447.987 214.122V262.5C447.999 269.693 445.504 276.666 440.931 282.218C440.287 283.007 439.604 283.762 438.883 284.481C437.464 285.901 435.91 287.178 434.243 288.294C433.904 288.529 433.561 288.749 433.214 288.965C432.724 289.269 432.234 289.558 431.709 289.832L430.994 290.21C430.934 290.245 430.872 290.276 430.808 290.303C430.567 290.425 430.318 290.543 430.082 290.655C430.056 290.674 430.026 290.688 429.994 290.695C429.725 290.822 429.455 290.945 429.186 291.057C428.916 291.17 428.607 291.302 428.318 291.415C427.416 291.778 426.495 292.093 425.56 292.361C424.515 292.665 423.455 292.913 422.385 293.105C421.08 293.335 419.763 293.482 418.44 293.546C417.95 293.571 417.416 293.586 416.901 293.586C406.122 293.581 397.055 301.667 395.831 312.377C395.739 313.174 395.693 313.976 395.694 314.778C395.693 320.4 397.926 325.792 401.902 329.767C405.877 333.741 411.27 335.973 416.892 335.971H450.466C451.952 335.969 453.435 336.072 454.906 336.279C456.228 336.459 457.538 336.724 458.826 337.073C459.262 337.191 459.693 337.318 460.124 337.45C465.074 339.004 469.575 341.728 473.247 345.393Z" fill="#F3F4FE"/>
<path d="M21.05 60.2722V141.887C19.6862 140.847 18.3777 139.736 17.13 138.56V63.5895L17.2574 63.4719C17.6249 63.1289 17.9924 62.7957 18.3697 62.4674C19.2452 61.7063 20.1386 60.9745 21.05 60.2722Z" fill="white"/>
<path d="M17.13 354.718C18.1791 352.425 19.4948 350.264 21.05 348.279V388.151C19.6678 386.401 18.4737 384.511 17.4877 382.511C17.3554 382.246 17.228 381.982 17.1055 381.712L17.13 354.718Z" fill="white"/>
<path d="M57.5501 48.7425V152.314H53.6301V49.7568C54.979 49.6106 56.2995 49.2689 57.5501 48.7425V48.7425Z" fill="white"/>
<path d="M57.31 202.147C57.3835 202.103 57.457 202.059 57.5354 202.019V287.078C56.1797 286.304 54.8731 285.465 53.6154 284.56V204.543C54.811 203.684 56.0425 202.885 57.31 202.147Z" fill="white"/>
<path d="M53.6056 335.941H57.5501V400.479H53.6056V335.941Z" fill="white"/>
<path d="M94.0306 0.889099V152.299H90.0861V0.889099H90.8162H94.0306Z" fill="white"/>
<path d="M90.0861 195.537H94.0306V294.282C92.74 293.934 91.4191 293.711 90.0861 293.615L90.0861 195.537Z" fill="white"/>
<path d="M90.0861 335.882C91.4192 335.787 92.7401 335.564 94.0306 335.216V400.479H90.0861V335.882Z" fill="white"/>
<path d="M130.506 0.889099V156.302C129.276 155.422 127.953 154.678 126.562 154.083V0.889099L130.506 0.889099Z" fill="white"/>
<path d="M126.562 193.768C127.951 193.171 129.273 192.428 130.506 191.553V400.479H126.562V193.768Z" fill="white"/>
<path d="M163.042 0.889099H166.987V400.479H163.042V0.889099Z" fill="white"/>
<path d="M199.523 0.889099H203.467V400.479H199.523V0.889099Z" fill="white"/>
<path d="M239.943 1.52119V400.479H235.998V0.942993C237.327 1.02493 238.646 1.21834 239.943 1.52119Z" fill="white"/>
<path d="M276.423 48.8503V400.479H272.503V47.3019C272.812 47.4587 273.126 47.6057 273.444 47.7478C274.412 48.1803 275.407 48.5486 276.423 48.8503Z" fill="white"/>
<path d="M308.959 49.8401H312.904V400.479H308.959V49.8401Z" fill="white"/>
<path d="M345.435 49.8401H349.379V400.479H345.435V49.8401Z" fill="white"/>
<path d="M385.86 64.0746V400.479H381.94V60.0566C382.175 60.2673 382.405 60.4731 382.636 60.6887C382.866 60.9043 383.023 61.0464 383.209 61.2326C383.635 61.6393 384.047 62.0509 384.439 62.4772C384.596 62.6291 384.738 62.7859 384.88 62.9672C384.9 62.9795 384.917 62.9963 384.929 63.0162C385.081 63.1779 385.228 63.3396 385.365 63.5062C385.502 63.6728 385.693 63.8835 385.86 64.0746Z" fill="white"/>
<path d="M422.36 150.751V293.076C421.056 293.306 419.738 293.453 418.416 293.517V150.437C419.721 150.639 421.039 150.743 422.36 150.751Z" fill="white"/>
<path d="M418.396 335.941H422.34V400.479H418.396V335.941Z" fill="white"/>
<path d="M458.816 150.751V199.569C457.428 199.978 456.108 200.587 454.896 201.377V150.751L458.816 150.751Z" fill="white"/>
<path d="M458.816 337.044V399.377C457.528 399.727 456.219 399.994 454.896 400.175V336.25C456.218 336.43 457.528 336.695 458.816 337.044Z" fill="white"/>
<rect x="73.725" y="409.304" width="36.2894" height="8.6289" rx="4.31445" transform="rotate(-180 73.725 409.304)" fill="#7986BF"/>
<rect x="474.104" y="409.304" width="396.871" height="8.6289" rx="4.31445" transform="rotate(-180 474.104 409.304)" fill="#7986BF"/>
<path d="M103.007 28.2948H125.596C126.2 28.2909 126.78 28.5285 127.207 28.9546C127.634 29.3808 127.873 29.9602 127.87 30.5635V84.6791H103.007V28.2948Z" fill="#6675AD"/>
<path d="M101.41 28.2948H123.999V84.6791H99.1315V30.5635C99.1315 29.9644 99.3695 29.3898 99.7931 28.9662C100.217 28.5426 100.791 28.3046 101.39 28.3046L101.41 28.2948Z" fill="#7986BF"/>
<ellipse cx="111.215" cy="45.7045" rx="5.9682" ry="5.9682" fill="#6675AD"/>
<circle cx="111.215" cy="45.7045" r="2.7097" fill="#F3F4FE"/>
<circle cx="111.215" cy="73.4238" r="9.702" fill="#6675AD"/>
<circle cx="111.215" cy="73.4238" r="4.4002" fill="#F3F4FE"/>
<path d="M151.704 28.2948H174.293C175.54 28.2948 176.552 29.3061 176.552 30.5537V84.6791H151.704V28.2948Z" fill="#6675AD"/>
<path d="M150.087 28.2948H172.676V84.6791H147.828V30.5635C147.825 29.9627 148.062 29.3856 148.486 28.9599C148.91 28.5341 149.486 28.2948 150.087 28.2948V28.2948Z" fill="#7986BF"/>
<ellipse cx="159.911" cy="45.7045" rx="5.9682" ry="5.9682" fill="#6675AD"/>
<circle cx="159.911" cy="45.7045" r="2.7097" fill="#F3F4FE"/>
<circle cx="159.911" cy="73.4238" r="9.702" fill="#6675AD"/>
<circle cx="159.911" cy="73.4238" r="4.4002" fill="#F3F4FE"/>
<path d="M64.2435 95.9834H211.013L201.35 84.6791H73.9112L64.2435 95.9834Z" fill="#D2D6FA"/>
<path d="M183.524 95.9785V111.149L173.224 118.396V95.9785H183.524Z" fill="#D2D6FA"/>
<path d="M104.536 95.9785V118.396L94.2364 111.149V95.9785H104.536Z" fill="#D2D6FA"/>
<path d="M94.2364 95.9785H104.536V100.668H94.2364V95.9785Z" fill="#969ECC"/>
<path d="M173.224 95.9785H183.524V100.668H173.224V95.9785Z" fill="#969ECC"/>
<path d="M317.48 93.6951H373.394V156.484H317.48V93.6951Z" fill="#D2D6FA"/>
<path d="M322.375 99.188H368.504V150.986H322.375V99.188Z" fill="#F3F4FE"/>
<path d="M336.051 116.108L348.424 138.937L326.384 140.402L336.051 116.108Z" fill="#D2D6FA"/>
<path d="M363.075 105.186L354.451 120.802L345.435 108.591L363.075 105.186Z" fill="#D2D6FA"/>
<path d="M361.723 128.255L359.914 139.035L352.221 133.811L361.723 128.255Z" fill="#D2D6FA"/>
<circle cx="256.877" cy="88.7069" r="13.0732" fill="#332D52"/>
<path d="M239.409 138.185C246.265 132.921 256.09 134.211 261.354 141.067C266.619 147.922 265.329 157.747 258.473 163.012L218.727 193.532C211.871 198.796 202.046 197.506 196.782 190.651C191.518 183.795 192.808 173.97 199.663 168.706L239.409 138.185Z" fill="#FAEEDE"/>
<circle cx="209.244" cy="179.974" r="16.7972" fill="#F2E6D7"/>
<path d="M170.272 136.067C166.944 129.753 169.365 121.936 175.68 118.608C181.994 115.281 189.81 117.702 193.138 124.016L219.045 173.173C222.373 179.488 219.952 187.304 213.637 190.632C207.323 193.96 199.506 191.538 196.179 185.224L170.272 136.067Z" fill="#EF948C"/>
<path d="M185.852 116.745C192.337 119.56 195.313 127.099 192.499 133.584C189.684 140.07 182.145 143.046 175.659 140.231L165.384 135.772C158.898 132.957 155.922 125.418 158.737 118.933C161.552 112.447 169.091 109.471 175.576 112.286L185.852 116.745Z" fill="#EF948C"/>
<path d="M183.584 115.76C185.93 116.778 187.006 119.505 185.988 121.851C184.97 124.197 182.243 125.273 179.897 124.255L156.114 113.934C153.768 112.916 152.691 110.189 153.71 107.843C154.728 105.497 157.455 104.42 159.801 105.439L183.584 115.76Z" fill="#EF948C"/>
<path d="M190.349 118.214C191.755 120.337 191.175 123.198 189.052 124.604C186.93 126.011 184.069 125.43 182.662 123.308L174.731 111.339C173.324 109.216 173.905 106.355 176.027 104.948C178.15 103.542 181.011 104.122 182.417 106.245L190.349 118.214Z" fill="#EA8681"/>
<circle cx="182.647" cy="123.899" r="9.1238" fill="#EA8681"/>
<path d="M239.409 138.185C246.265 132.921 256.09 134.211 261.354 141.067C266.619 147.922 265.329 157.747 258.473 163.012L218.727 193.532C211.871 198.796 202.046 197.506 196.782 190.651C191.518 183.795 192.808 173.97 199.663 168.706L239.409 138.185Z" fill="#F2E6D7"/>
<circle cx="209.244" cy="179.974" r="16.7972" fill="#FAEEDE"/>
<path d="M170.272 136.067C166.944 129.753 169.365 121.936 175.68 118.608C181.994 115.281 189.811 117.702 193.138 124.016L219.045 173.173C222.373 179.488 219.952 187.304 213.637 190.632C207.323 193.96 199.506 191.538 196.179 185.224L170.272 136.067Z" fill="#EF948C"/>
<path d="M185.852 116.745C192.337 119.56 195.313 127.099 192.499 133.584C189.684 140.07 182.145 143.046 175.659 140.231L165.384 135.772C158.898 132.957 155.922 125.418 158.737 118.933C161.552 112.447 169.091 109.471 175.576 112.286L185.852 116.745Z" fill="#EF948C"/>
<path d="M158.74 118.92C159.199 117.866 159.795 116.878 160.514 115.98C158.619 122.202 161.702 128.853 167.673 131.43L168.922 131.974L173.788 134.086L177.331 140.813L198.459 180.91C200.494 184.764 204.334 187.334 208.673 187.746C213.012 188.158 217.266 186.356 219.99 182.953C218.465 187.966 214.066 191.562 208.85 192.059C203.635 192.556 198.635 189.856 196.191 185.222L171.519 138.398L165.399 135.742C162.284 134.396 159.831 131.867 158.582 128.712C157.333 125.556 157.39 122.034 158.74 118.92Z" fill="#EA8681"/>
<path d="M183.584 115.76C185.93 116.778 187.006 119.505 185.988 121.851C184.97 124.197 182.243 125.273 179.897 124.255L156.114 113.934C153.768 112.916 152.691 110.189 153.71 107.843C154.728 105.497 157.455 104.42 159.801 105.439L183.584 115.76Z" fill="#EF948C"/>
<path d="M190.349 118.214C191.755 120.337 191.175 123.198 189.052 124.604C186.93 126.011 184.069 125.43 182.662 123.308L174.731 111.339C173.324 109.216 173.905 106.355 176.027 104.948C178.15 103.542 181.011 104.122 182.417 106.245L190.349 118.214Z" fill="#EF948C"/>
<circle cx="182.647" cy="123.899" r="9.1238" fill="#EF948C"/>
<ellipse cx="257.754" cy="154.778" rx="24.5294" ry="24.5294" fill="#F2E6D7"/>
<path d="M287.65 265.556C267.225 266.019 250.291 249.837 249.828 229.412L248.568 173.885C248.104 153.46 264.286 136.526 284.711 136.062C305.137 135.599 322.07 151.781 322.534 172.206L323.794 227.733C324.257 248.159 308.075 265.092 287.65 265.556Z" fill="#FAEEDE"/>
<path d="M237.925 153.744C237.622 138.616 249.641 126.108 264.768 125.805L305.992 124.981C321.119 124.678 333.628 136.696 333.931 151.824C334.43 176.783 314.601 197.421 289.642 197.92L284.017 198.033C259.059 198.529 238.424 178.701 237.925 153.744H237.925Z" fill="#FAEEDE"/>
<path d="M288.869 197.389H288.913C313.866 196.822 333.634 176.134 333.067 151.182C332.725 136.058 320.187 124.076 305.064 124.418L263.85 125.354C261.967 125.395 260.093 125.632 258.259 126.06L297.822 125.158H298.459C313.337 125.165 325.489 137.047 325.83 151.922C326.333 174.093 310.676 193.353 288.869 197.389Z" fill="#FFF7EE"/>
<path d="M270.631 105.347L271.161 128.691C271.313 135.964 277.258 141.776 284.533 141.764H284.837C288.385 141.683 291.756 140.195 294.206 137.627C296.657 135.059 297.985 131.622 297.9 128.073L297.724 120.077L297.371 104.735C297.208 97.4666 291.269 91.6598 283.999 91.6616H283.69C276.306 91.8381 270.462 97.9634 270.631 105.347Z" fill="#EF948C"/>
<path d="M207.309 267.382C195.715 267.645 186.103 258.46 185.84 246.865C185.576 235.271 194.762 225.658 206.357 225.395L302.69 223.209C314.285 222.946 323.897 232.132 324.16 243.726C324.423 255.321 315.238 264.933 303.643 265.196L207.309 267.382Z" fill="#332D52"/>
<path d="M282.284 245.718V371.114H324.286V245.718C324.286 234.119 314.884 224.716 303.285 224.716C291.686 224.716 282.284 234.119 282.284 245.718Z" fill="#666DA2"/>
<path d="M282.284 245.718V371.113H293.206V264.783C293.207 257.367 297.119 250.501 303.498 246.719C309.878 242.936 317.779 242.798 324.286 246.355V245.698C324.286 234.099 314.884 224.697 303.285 224.697C291.686 224.697 282.284 234.099 282.284 245.698L282.284 245.718Z" fill="#555A8B"/>
<path d="M282.284 353.042V371.104H324.286V359.638L282.284 353.042Z" fill="#141334"/>
<path d="M143.408 357.036L180.849 372.045L185.077 361.083L226.311 254.263C230.487 243.438 225.096 231.278 214.272 227.103C203.447 222.927 191.287 228.317 187.111 239.142L148.474 339.288L143.423 352.356L143.408 357.036Z" fill="#332D52"/>
<path d="M168.721 388.944L139.333 377.598L145.548 361.499L174.936 372.845L168.721 388.944Z" fill="#EA8681"/>
<path d="M319.039 390.503H287.537V374.372H319.039V390.503Z" fill="#EF948C"/>
<path d="M270.632 105.347L271.161 128.691C271.186 129.917 271.381 131.134 271.739 132.307H272.719C282.496 132.312 291.724 127.789 297.709 120.057L297.356 104.715C297.194 97.447 291.254 91.6402 283.984 91.642H283.69C280.141 91.7267 276.77 93.2185 274.321 95.789C271.872 98.3595 270.545 101.798 270.632 105.347Z" fill="#EA8681"/>
<path d="M247.43 94.4105C247.43 111.204 260.552 125.07 277.32 125.996C277.883 126.025 278.447 126.04 279.02 126.04C290.413 126.182 301.002 120.185 306.74 110.341C312.478 100.497 312.478 88.3284 306.74 78.4847C301.002 68.641 290.413 62.6441 279.02 62.7859C278.447 62.7859 277.883 62.7859 277.32 62.83C260.553 63.7535 247.431 77.6183 247.43 94.4105Z" fill="#EF948C"/>
<path d="M266.006 102.946C266.008 104.819 266.756 106.614 268.083 107.934C268.245 108.096 268.417 108.248 268.573 108.39C269.839 109.432 271.428 109.999 273.067 109.992H273.356C277.029 109.981 280.08 107.156 280.373 103.495C280.373 103.299 280.373 103.103 280.373 102.907C280.376 102.54 280.231 102.186 279.971 101.927C279.71 101.67 279.357 101.527 278.991 101.53L267.319 101.56C266.578 101.589 265.995 102.204 266.006 102.946Z" fill="#962F4A"/>
<path d="M273.224 108.905C273.225 109.27 273.261 109.634 273.331 109.992H273.371C277.043 109.981 280.094 107.156 280.387 103.495C279.88 103.347 279.353 103.272 278.824 103.275C277.335 103.278 275.908 103.874 274.858 104.93C273.808 105.986 273.22 107.415 273.224 108.905Z" fill="#E1617F"/>
<path d="M267.628 101.574C267.687 102.961 269.828 104.064 272.454 104.059C275.081 104.054 277.212 102.937 277.261 101.55L267.628 101.574Z" fill="white"/>
<path d="M247.43 94.4105C247.43 111.204 260.552 125.07 277.32 125.996C278.192 125.952 279.059 125.869 279.917 125.746C264.258 123.596 252.59 110.216 252.59 94.4105C252.59 78.6046 264.258 65.2251 279.917 63.075C279.059 62.9574 278.192 62.8741 277.32 62.83C260.553 63.7535 247.431 77.6183 247.43 94.4105Z" fill="#EA8681"/>
<path d="M305.152 150.667V150.996C305.461 161.442 312.428 169.728 320.935 169.851H321.484C330.333 169.621 337.36 160.649 337.164 149.82C337.066 143.822 335.792 138.971 332.264 135.468C330.154 133.522 327.646 132.059 324.914 131.18C322.682 130.519 320.316 130.458 318.054 131.004C310.586 132.807 304.995 140.995 305.152 150.667Z" fill="#FAEEDE"/>
<path d="M304.52 150.261V150.594C304.789 158.135 308.504 164.583 313.776 167.744C311.027 164.054 309.486 159.604 309.366 155.004C309.366 154.891 309.366 154.783 309.366 154.671C309.155 144.841 314.874 136.541 322.596 134.757C323.531 134.535 324.487 134.413 325.448 134.394C326.885 134.366 328.318 134.559 329.696 134.968C330.9 135.326 332.052 135.836 333.126 136.487C331.068 133.681 328.169 131.604 324.85 130.558C322.542 129.869 320.094 129.796 317.75 130.347C310.023 132.145 304.304 140.436 304.52 150.261Z" fill="#F2E6D7"/>
<path d="M311.091 158.172C307.447 150.334 310.848 141.026 318.686 137.383C326.524 133.739 335.832 137.14 339.475 144.978L360.598 190.421C364.242 198.259 360.841 207.567 353.003 211.21C345.165 214.854 335.857 211.453 332.214 203.615L311.091 158.172Z" fill="#FAEEDE"/>
<circle cx="345.293" cy="196.742" r="16.7972" fill="#F2E6D7"/>
<path d="M311.091 158.172C307.447 150.334 310.848 141.026 318.686 137.383C326.524 133.739 335.832 137.14 339.475 144.978L360.598 190.421C364.242 198.259 360.841 207.567 353.003 211.21C345.165 214.854 335.857 211.453 332.214 203.615L311.091 158.172Z" fill="#FAEEDE"/>
<path d="M310.498 146.473C313.562 141.637 319.022 138.859 324.735 139.231C330.448 139.603 335.502 143.064 337.913 148.257L359.032 193.699C360.745 197.373 360.963 201.569 359.64 205.4C361.231 202.893 362.08 199.986 362.09 197.016C362.088 194.742 361.586 192.495 360.62 190.436L339.501 144.993C336.818 139.203 330.887 135.623 324.513 135.946C318.14 136.27 312.601 140.431 310.518 146.463L310.498 146.473Z" fill="#FFF7EE"/>
<circle cx="345.293" cy="196.742" r="16.7972" fill="#F2E6D7"/>
<rect x="316.907" y="87.1585" width="77.4984" height="30.3016" rx="15.1508" transform="rotate(-180 316.907 87.1585)" fill="#332D52"/>
<circle cx="308.063" cy="88.7069" r="13.0732" fill="#332D52"/>
<circle cx="310.4" cy="91.0442" r="10.7359" fill="#49466B"/>
<circle cx="310.655" cy="94.4154" r="10.4811" fill="#EF948C"/>
<path d="M309.831 97.6935V91.1422C309.832 90.8109 309.992 90.4999 310.26 90.306C310.529 90.112 310.874 90.0586 311.189 90.1622C313.039 90.755 314.294 92.4752 314.294 94.4179C314.294 96.3605 313.039 98.0807 311.189 98.6735C310.874 98.7749 310.53 98.7204 310.262 98.527C309.994 98.3335 309.834 98.024 309.831 97.6935H309.831Z" fill="#EA8681"/>
<ellipse cx="256.877" cy="67.4017" rx="20.0263" ry="20.0263" fill="#332D52"/>
<path d="M238.674 67.4017C238.669 72.1958 240.718 76.7623 244.302 79.9469C247.885 83.1314 252.661 84.6293 257.421 84.0617C248.992 83.0578 242.645 75.9099 242.645 67.4213C242.645 58.9327 248.992 51.7848 257.421 50.7809C252.661 50.2133 247.885 51.7112 244.302 54.8957C240.718 58.0803 238.669 62.6468 238.674 67.4409V67.4017Z" fill="#49466B"/>
<circle cx="272.734" cy="55.2889" r="13.7788" fill="#332D52"/>
<path d="M257.421 91.936C257.494 93.9362 259.136 95.5201 261.138 95.5201C263.139 95.5201 264.782 93.9362 264.854 91.936C264.856 91.6454 264.821 91.3558 264.752 91.0736C264.354 92.7479 262.859 93.9299 261.138 93.9299C259.417 93.9299 257.921 92.7479 257.524 91.0736C257.455 91.3558 257.42 91.6454 257.421 91.936Z" fill="#332D52"/>
<path d="M277.839 91.936C277.839 93.99 279.505 95.6551 281.559 95.6551C283.613 95.6551 285.278 93.99 285.278 91.936C285.279 91.6454 285.244 91.3558 285.175 91.0736C284.773 92.7454 283.278 93.9239 281.559 93.9239C279.839 93.9239 278.344 92.7454 277.942 91.0736C277.873 91.3558 277.838 91.6454 277.839 91.936Z" fill="#332D52"/>
<path d="M282.289 398.519H322.312C322.313 388.777 315.301 380.449 305.701 378.792C304.577 378.602 303.44 378.507 302.3 378.508C296.992 378.506 291.902 380.614 288.148 384.367C284.395 388.121 282.287 393.211 282.289 398.519Z" fill="#332D52"/>
<path d="M282.289 398.519H291.53C291.535 389.586 297.236 381.651 305.701 378.797C304.577 378.607 303.44 378.512 302.3 378.512C296.993 378.511 291.903 380.618 288.15 384.371C284.397 388.123 282.289 393.212 282.289 398.519Z" fill="#49466B"/>
<path d="M276.747 394.898C276.748 395.29 276.788 395.68 276.864 396.064C276.902 396.251 276.949 396.436 277.006 396.618C277.062 396.798 277.127 396.975 277.202 397.147C277.417 397.663 277.708 398.143 278.065 398.573C278.182 398.715 278.305 398.847 278.437 398.98C278.567 399.11 278.705 399.233 278.849 399.347C279.88 400.202 281.179 400.669 282.519 400.665H325.227C327.589 400.671 329.523 398.788 329.582 396.427C329.64 394.066 327.802 392.09 325.443 391.978L293.426 389.841L282.798 389.131C281.842 389.082 280.888 389.274 280.025 389.689C279.774 389.812 279.532 389.951 279.3 390.106C279.073 390.257 278.856 390.421 278.648 390.596C278.442 390.782 278.25 390.984 278.075 391.199C277.955 391.341 277.844 391.49 277.741 391.644C277.371 392.189 277.099 392.794 276.938 393.433C276.888 393.617 276.849 393.803 276.82 393.992C276.772 394.291 276.748 394.594 276.747 394.898H276.747Z" fill="#332D52"/>
<path d="M276.747 394.898C276.748 395.29 276.788 395.68 276.864 396.064C276.9 396.252 276.947 396.437 277.006 396.618C277.059 396.799 277.125 396.976 277.202 397.147C277.417 397.663 277.708 398.143 278.065 398.573C278.182 398.715 278.305 398.847 278.437 398.98C278.567 399.11 278.705 399.233 278.849 399.347C279.88 400.202 281.179 400.669 282.519 400.665H296.214C293.578 400.672 291.272 398.89 290.614 396.337C289.957 393.783 291.114 391.109 293.426 389.841L282.798 389.131C281.842 389.082 280.888 389.274 280.025 389.689C279.524 389.931 279.061 390.243 278.648 390.615C278.442 390.802 278.25 391.003 278.075 391.218C277.954 391.359 277.843 391.508 277.741 391.664C277.371 392.209 277.099 392.814 276.938 393.453C276.888 393.636 276.849 393.823 276.82 394.011C276.773 394.305 276.749 394.601 276.747 394.898H276.747Z" fill="#49466B"/>
<path d="M170.366 393.99L138.209 380.472L143.305 368.348L170.236 379.669C171.622 380.252 172.72 381.361 173.288 382.753C173.856 384.145 173.848 385.706 173.265 387.092L170.366 393.99Z" fill="#49466B"/>
<path d="M113.91 374.573L150.807 390.081C153.577 383.49 152.621 375.922 148.298 370.227C143.975 364.533 136.943 361.577 129.85 362.473C122.756 363.369 116.68 367.982 113.91 374.573H113.91Z" fill="#332D52"/>
<path d="M113.91 374.573L124.278 378.954C127.721 370.76 136.155 365.818 144.986 366.821C140.095 362.846 133.617 361.407 127.503 362.937C121.389 364.467 116.353 368.787 113.91 374.597L113.91 374.573Z" fill="#49466B"/>
<path d="M172.808 392.232L119.805 366.865C118.38 366.184 116.739 366.116 115.263 366.677C113.788 367.238 112.606 368.379 111.994 369.835C111.4 371.246 111.391 372.835 111.969 374.253C112.547 375.671 113.665 376.802 115.076 377.395L169.246 400.166C170.309 400.613 171.506 400.62 172.574 400.184C173.642 399.749 174.493 398.906 174.939 397.843C175.839 395.704 174.901 393.235 172.808 392.232Z" fill="#332D52"/>
<path d="M111.994 369.839C110.76 372.777 112.139 376.159 115.076 377.395L127.699 382.702C125.192 381.659 123.75 379.011 124.236 376.339C124.722 373.668 127.004 371.696 129.717 371.603L119.81 366.855C118.383 366.174 116.739 366.107 115.262 366.671C113.784 367.235 112.603 368.38 111.994 369.839Z" fill="#49466B"/>
<path d="M345.298 220.38L348.605 229.807L354.422 246.413L408.488 400.69H420.547L379.103 246.413L374.644 229.807L372.111 220.38H345.298Z" fill="#441242"/>
<path d="M348.605 229.807L354.421 246.413H379.103L374.644 229.807H348.605Z" fill="#2F073A"/>
<path d="M172.587 220.38L169.28 229.807L163.464 246.413L109.397 400.69H97.3381L138.782 246.413L143.241 229.807L145.775 220.38H172.587Z" fill="#441242"/>
<path d="M169.28 229.807L163.464 246.413H138.782L143.241 229.807H169.28Z" fill="#2F073A"/>
<path d="M405.95 236.986L118.727 236.986C114.765 236.989 111.549 233.784 111.538 229.822V220.404L413.138 220.404V229.822C413.127 233.784 409.911 236.989 405.95 236.986Z" fill="#441242"/>
<rect x="449.354" y="224.814" width="374.032" height="13.1712" rx="6.5856" transform="rotate(-180 449.354 224.814)" fill="#D8BA9F"/>
<path d="M75.3224 218.234C75.3251 221.87 78.272 224.816 81.908 224.819H442.769C446.406 224.819 449.354 221.871 449.354 218.234C449.356 217.456 449.218 216.684 448.947 215.955C447.993 218.542 445.526 220.259 442.769 220.257H81.908C80.1607 220.262 78.4843 219.566 77.253 218.327C76.5761 217.659 76.057 216.849 75.734 215.955C75.4616 216.684 75.3222 217.456 75.3224 218.234Z" fill="#C89F87"/>
<circle cx="402.211" cy="230.729" r="2.4353" fill="#D8BA9F"/>
<circle cx="401.682" cy="230.89" r="2.9694" fill="#2F073A"/>
<circle cx="402.211" cy="230.729" r="2.4353" fill="#D8BA9F"/>
<path d="M399.776 230.728C399.776 232.082 400.873 233.178 402.226 233.178H402.481C401.281 232.999 400.393 231.969 400.393 230.755C400.393 229.542 401.281 228.512 402.481 228.332C402.396 228.328 402.311 228.328 402.226 228.332C400.894 228.332 399.805 229.396 399.776 230.728H399.776Z" fill="#C89F87"/>
<path d="M402.211 232.061C402.335 232.101 402.464 232.121 402.593 232.12C403.362 232.12 403.985 231.497 403.985 230.729C403.985 229.96 403.362 229.337 402.593 229.337C402.464 229.336 402.335 229.356 402.211 229.396C402.812 229.56 403.228 230.106 403.228 230.729C403.228 231.351 402.812 231.897 402.211 232.061H402.211Z" fill="#F5EAE4"/>
<circle cx="388.589" cy="230.729" r="2.4353" fill="#D8BA9F"/>
<circle cx="388.06" cy="230.89" r="2.9694" fill="#2F073A"/>
<circle cx="388.589" cy="230.729" r="2.4353" fill="#D8BA9F"/>
<path d="M386.159 230.729C386.159 232.082 387.256 233.179 388.609 233.179H388.864C387.664 232.999 386.776 231.969 386.776 230.755C386.776 229.542 387.664 228.512 388.864 228.332C388.779 228.327 388.694 228.327 388.609 228.332C387.276 228.332 386.188 229.397 386.159 230.729H386.159Z" fill="#C89F87"/>
<path d="M388.589 232.061C388.713 232.101 388.842 232.121 388.971 232.12C389.74 232.12 390.363 231.497 390.363 230.729C390.363 229.96 389.74 229.337 388.971 229.337C388.842 229.336 388.713 229.356 388.589 229.396C389.19 229.56 389.606 230.106 389.606 230.729C389.606 231.351 389.19 231.897 388.589 232.061H388.589Z" fill="#F5EAE4"/>
<circle cx="123.779" cy="230.729" r="2.4353" fill="#D8BA9F"/>
<circle cx="124.308" cy="230.89" r="2.9694" fill="#2F073A"/>
<circle cx="123.779" cy="230.729" r="2.4353" fill="#D8BA9F"/>
<path d="M126.214 230.728C126.214 232.082 125.117 233.178 123.764 233.178H123.509C124.709 232.999 125.597 231.969 125.597 230.755C125.597 229.542 124.709 228.512 123.509 228.332C123.594 228.328 123.679 228.328 123.764 228.332C125.096 228.332 126.184 229.396 126.214 230.728Z" fill="#C89F87"/>
<path d="M123.778 232.061C123.655 232.101 123.526 232.121 123.396 232.12C122.899 232.12 122.44 231.855 122.191 231.424C121.943 230.994 121.943 230.463 122.191 230.033C122.44 229.602 122.899 229.337 123.396 229.337C123.526 229.336 123.655 229.356 123.778 229.396C123.184 229.566 122.775 230.11 122.775 230.729C122.775 231.347 123.184 231.891 123.778 232.061Z" fill="#F5EAE4"/>
<circle cx="137.401" cy="230.729" r="2.4353" fill="#D8BA9F"/>
<circle cx="137.93" cy="230.89" r="2.9694" fill="#2F073A"/>
<circle cx="137.401" cy="230.729" r="2.4353" fill="#D8BA9F"/>
<path d="M139.831 230.728C139.831 232.082 138.734 233.178 137.381 233.178H137.126C138.326 232.999 139.214 231.969 139.214 230.755C139.214 229.542 138.326 228.512 137.126 228.332C137.211 228.328 137.296 228.328 137.381 228.332C138.713 228.332 139.802 229.396 139.831 230.728Z" fill="#C89F87"/>
<path d="M137.401 232.061C137.277 232.101 137.148 232.121 137.018 232.12C136.25 232.12 135.627 231.497 135.627 230.729C135.627 229.96 136.25 229.337 137.018 229.337C137.148 229.336 137.277 229.356 137.401 229.396C136.8 229.56 136.383 230.106 136.383 230.729C136.383 231.351 136.8 231.897 137.401 232.061Z" fill="#F5EAE4"/>
<path d="M284.707 186.693C287.253 186.459 289.507 188.335 289.74 190.882C289.973 193.428 288.097 195.682 285.551 195.915L271.19 197.23C268.643 197.463 266.39 195.587 266.157 193.04C265.924 190.494 267.799 188.24 270.346 188.007L284.707 186.693Z" fill="#EA8681"/>
<circle cx="286.517" cy="195.213" r="9.1238" fill="#EA8681"/>
<path d="M291.379 211.904C284.242 211.833 278.513 205.989 278.584 198.852C278.655 191.715 284.499 185.987 291.636 186.058L347.199 186.61C354.337 186.681 360.065 192.525 359.994 199.662C359.923 206.799 354.079 212.528 346.942 212.457L291.379 211.904Z" fill="#EF948C"/>
<path d="M281.701 188.99C287.259 184.62 295.307 185.582 299.677 191.14C304.047 196.697 303.084 204.745 297.527 209.115L288.722 216.039C283.164 220.409 275.116 219.447 270.746 213.889C266.376 208.332 267.338 200.284 272.896 195.914L281.701 188.99Z" fill="#EF948C"/>
<path d="M279.755 190.516C281.765 188.935 284.676 189.284 286.257 191.294C287.838 193.304 287.49 196.215 285.479 197.796L265.1 213.822C263.089 215.403 260.178 215.054 258.598 213.044C257.017 211.034 257.365 208.123 259.375 206.542L279.755 190.516Z" fill="#EF948C"/>
<path d="M284.707 186.693C287.253 186.459 289.507 188.335 289.74 190.882C289.973 193.428 288.097 195.682 285.551 195.915L271.19 197.23C268.643 197.463 266.39 195.587 266.157 193.04C265.924 190.494 267.799 188.24 270.346 188.007L284.707 186.693Z" fill="#EF948C"/>
<circle cx="286.517" cy="195.213" r="9.1238" fill="#EF948C"/>
<path d="M291.379 211.904C284.242 211.833 278.513 205.989 278.584 198.852C278.655 191.715 284.499 185.987 291.636 186.058L347.199 186.61C354.337 186.681 360.065 192.525 359.994 199.662C359.923 206.799 354.079 212.528 346.942 212.457L291.379 211.904Z" fill="#EF948C"/>
<path d="M281.701 188.99C287.259 184.62 295.307 185.582 299.677 191.14C304.047 196.697 303.084 204.745 297.527 209.115L288.722 216.039C283.164 220.409 275.116 219.447 270.746 213.889C266.376 208.332 267.338 200.284 272.896 195.914L281.701 188.99Z" fill="#EF948C"/>
<path d="M269.504 210.653C273.875 216.211 281.924 217.174 287.483 212.804L288.953 211.643L292.716 208.703L298.018 208.752L345.636 209.242C352.773 209.313 358.617 203.585 358.689 196.448V196.316C358.69 195.268 358.562 194.225 358.307 193.209C359.403 195.143 359.977 197.328 359.973 199.55V199.682C359.903 206.819 354.062 212.549 346.924 212.481L294.004 211.957L288.761 216.077C285.343 218.762 280.795 219.53 276.685 218.116C272.574 216.702 269.461 213.3 268.417 209.08C268.74 209.631 269.103 210.157 269.504 210.653Z" fill="#F3A6A0"/>
<path d="M279.755 190.516C281.765 188.935 284.676 189.284 286.257 191.294C287.838 193.304 287.49 196.215 285.479 197.796L265.1 213.822C263.089 215.403 260.178 215.054 258.598 213.044C257.017 211.034 257.365 208.123 259.375 206.542L279.755 190.516Z" fill="#EF948C"/>
<path d="M286.046 198.829C287.801 197.448 290.343 197.752 291.723 199.507C293.103 201.262 292.799 203.804 291.044 205.184L285.128 209.836C283.373 211.216 280.831 210.912 279.451 209.157C278.071 207.402 278.375 204.861 280.13 203.481L286.046 198.829Z" fill="#F3A6A0"/>
<circle cx="254.932" cy="92.2447" r="13.5191" stroke="white" stroke-width="2.85"/>
<circle cx="286.831" cy="92.2447" r="13.5191" stroke="white" stroke-width="2.85"/>
<path d="M268.441 92.7744H273.322" stroke="white" stroke-width="2.85"/>
<path d="M143.408 357.036L180.849 372.044L185.077 361.083L148.474 339.288L143.423 352.361L143.408 357.036Z" fill="#141334"/>
<path d="M198.082 207.561H190.419V206.091C190.419 204.7 191.546 203.573 192.937 203.573H195.568C196.959 203.573 198.087 204.7 198.087 206.091V207.561L198.082 207.561Z" fill="#ABB2D8"/>
<path d="M205.746 207.561H198.082V206.091C198.082 204.7 199.21 203.573 200.601 203.573H203.232C204.623 203.573 205.751 204.7 205.751 206.091V207.561L205.746 207.561Z" fill="#ABB2D8"/>
<path d="M213.414 207.561H205.751V206.091C205.751 204.7 206.878 203.573 208.269 203.573H210.901C212.292 203.573 213.419 204.7 213.419 206.091V207.561L213.414 207.561Z" fill="#ABB2D8"/>
<path d="M221.078 207.561H213.414V206.091C213.414 204.7 214.542 203.573 215.933 203.573H218.564C219.955 203.573 221.083 204.7 221.083 206.091V207.561L221.078 207.561Z" fill="#ABB2D8"/>
<path d="M228.741 207.561H221.078V206.091C221.078 204.7 222.205 203.573 223.596 203.573H226.228C227.619 203.573 228.746 204.7 228.746 206.091V207.561L228.741 207.561Z" fill="#ABB2D8"/>
<path d="M236.41 207.561H228.746V206.091C228.746 204.7 229.874 203.573 231.265 203.573H233.891C235.282 203.573 236.41 204.7 236.41 206.091V207.561L236.41 207.561Z" fill="#ABB2D8"/>
<path d="M244.069 207.561H236.405V206.091C236.405 204.7 237.533 203.573 238.924 203.573H241.555C242.946 203.573 244.074 204.7 244.074 206.091V207.561L244.069 207.561Z" fill="#ABB2D8"/>
<rect x="254.261" y="211.643" width="87.4846" height="6.2475" rx="3.12375" transform="rotate(-180 254.261 211.643)" fill="#5D6295"/>
<path d="M190.874 211.643H117.864C114.805 211.643 112.137 209.563 111.391 206.596L97.1813 150.07C96.68 148.074 97.1269 145.958 98.3925 144.335C99.6581 142.713 101.601 141.764 103.659 141.764H168.084C171.144 141.764 173.811 143.844 174.557 146.811L190.874 211.643Z" fill="#666DA2"/>
<path d="M97.1764 150.075L111.386 206.596C112.135 209.564 114.803 211.645 117.864 211.648H190.874L189.301 205.4H131.628C128.567 205.399 125.898 203.317 125.15 200.349L110.94 143.827C110.771 143.153 110.707 142.457 110.749 141.764H103.654C101.596 141.766 99.653 142.715 98.3876 144.339C97.1222 145.962 96.6754 148.078 97.1764 150.075Z" fill="#5D6295"/>
<circle cx="139.454" cy="178.573" r="3.6554" fill="#ABB2D8"/>
<path d="M134.563 184.041C136.152 186.494 139.072 187.736 141.94 187.178C144.809 186.619 147.05 184.374 147.602 181.504C148.155 178.634 146.908 175.717 144.452 174.133C146.251 176.966 145.843 180.668 143.47 183.04C141.098 185.413 137.396 185.821 134.563 184.022L134.563 184.041Z" fill="#ABB2D8"/>
<path d="M282.284 374.47H324.287L328.569 363.675L274.64 355.208L282.284 374.47Z" fill="#332D52"/>
<circle cx="320.798" cy="369.972" r="2.6215" fill="#141334"/>
<circle cx="320.95" cy="370.682" r="1.911" fill="#666DA2"/>
<path d="M320.93 371.932C321.014 371.947 321.099 371.956 321.185 371.956C321.859 371.915 322.385 371.355 322.385 370.68C322.385 370.004 321.859 369.445 321.185 369.403C321.099 369.403 321.013 369.413 320.93 369.433C321.517 369.561 321.936 370.081 321.936 370.682C321.936 371.284 321.517 371.804 320.93 371.932Z" fill="#332D52"/>
<path d="M321.244 369.085C321.136 369.061 321.026 369.049 320.915 369.051C320.05 369.098 319.373 369.813 319.373 370.68C319.373 371.546 320.05 372.262 320.915 372.309C321.026 372.31 321.136 372.299 321.244 372.275C320.492 372.113 319.956 371.448 319.956 370.68C319.956 369.911 320.492 369.247 321.244 369.085Z" fill="#9DA5D1"/>
<path d="M140.272 359.589L179.256 375.215L187.248 366.792L140.341 338.867L140.272 359.589Z" fill="#262344"/>
<circle cx="177.899" cy="368.164" r="2.6215" fill="#141334"/>
<circle cx="178.051" cy="368.874" r="1.911" fill="#666DA2"/>
<path d="M178.051 370.133C178.134 370.153 178.22 370.163 178.306 370.163C178.98 370.121 179.505 369.562 179.505 368.886C179.505 368.211 178.98 367.652 178.306 367.61C178.221 367.603 178.136 367.603 178.051 367.61C178.638 367.738 179.057 368.258 179.057 368.859C179.057 369.461 178.638 369.981 178.051 370.109L178.051 370.133Z" fill="#332D52"/>
<path d="M178.34 367.277C178.232 367.253 178.122 367.241 178.012 367.243C177.147 367.29 176.469 368.005 176.469 368.872C176.469 369.738 177.147 370.454 178.012 370.501C178.122 370.502 178.232 370.491 178.34 370.467C177.589 370.305 177.053 369.64 177.053 368.872C177.053 368.103 177.589 367.439 178.34 367.277Z" fill="#9DA5D1"/>
</svg>
