<svg width="600" height="600" viewBox="0 0 600 600" fill="none" xmlns="http://www.w3.org/2000/svg">
<rect width="600" height="600" rx="6" fill="white"/>
<path d="M561.983 349.704C572.272 379.063 564.833 411.722 542.844 433.729C541.205 435.371 539.496 436.939 537.717 438.433C523.809 450.161 506.344 456.842 488.16 457.39C487.325 457.39 486.484 457.425 485.649 457.425H432.506C430.493 457.42 428.498 457.797 426.626 458.537C420.471 460.945 416.422 466.88 416.424 473.489V510.81C416.43 516.805 414.054 522.558 409.818 526.801C405.583 531.045 399.835 533.431 393.839 533.436H147.873V473.489C147.873 464.627 140.695 457.438 131.832 457.425H100.256C79.6066 457.433 59.8003 449.233 45.1987 434.632C30.597 420.03 22.3974 400.224 22.4052 379.574V373.453C22.3391 365.413 23.4727 357.409 25.7686 349.704C27.5554 343.81 30.1539 338.194 33.489 333.016C36.5585 328.27 40.2066 323.925 44.3494 320.08C46.035 318.512 47.7735 317.029 49.5649 315.629C52.3165 313.488 55.2015 311.524 58.2026 309.749C59.214 309.145 60.2273 308.557 61.2426 307.985C61.3484 307.92 61.4719 307.856 61.5836 307.797C67.921 304.408 74.5808 301.66 81.4639 299.594L81.8932 299.465C84.9292 298.557 87.7703 297.094 90.2721 295.149C95.6953 290.93 99.2177 284.728 100.062 277.909C100.195 276.848 100.26 275.779 100.256 274.71V249.432C100.256 248.779 100.256 248.133 100.309 247.492C100.944 235.409 107.44 224.397 117.708 217.998C118.844 217.282 120.022 216.636 121.236 216.063C122.841 215.277 124.504 214.616 126.211 214.087C129.262 213.128 132.424 212.569 135.619 212.423H135.772C136.295 212.423 136.818 212.388 137.336 212.388C137.883 212.388 138.429 212.388 138.964 212.341C139.5 212.294 139.888 212.282 140.334 212.229C150.169 211.186 158.766 205.135 163.067 196.23C163.402 195.559 163.696 194.877 163.96 194.184C165.247 190.883 165.905 187.371 165.901 183.829C165.907 170.286 156.4 158.601 143.139 155.852C142.21 155.664 141.275 155.517 140.329 155.417C139.87 155.37 139.417 155.329 138.959 155.311C138.5 155.293 137.877 155.258 137.33 155.258H97.3458C91.9452 155.262 86.581 154.374 81.4698 152.63C79.0286 151.801 76.6589 150.774 74.3844 149.56C73.3083 148.972 72.25 148.384 71.2327 147.737L71.1563 147.69C69.0052 146.338 66.9644 144.819 65.0528 143.145C63.2833 141.608 61.6268 139.946 60.096 138.171C59.0788 136.995 58.1027 135.748 57.1972 134.466C55.3691 131.896 53.7938 129.155 52.4932 126.281C51.7555 124.642 51.1135 122.962 50.5704 121.248C49.6987 118.581 49.0632 115.842 48.6712 113.063C48.4334 111.398 48.2823 109.722 48.2184 108.042C48.2184 107.389 48.1772 106.73 48.1772 106.066C48.1785 103.992 48.3081 101.92 48.5653 99.8625C48.7778 98.1741 49.0781 96.498 49.465 94.841C49.6884 93.8531 49.9589 92.8829 50.247 91.901C51.0054 89.3817 51.9609 86.9261 53.1047 84.5568C53.9091 82.9001 54.8103 81.292 55.8036 79.7411C56.831 78.1067 57.9561 76.5359 59.1728 75.0371C59.4786 74.6608 59.7608 74.2904 60.1019 73.9199C60.4429 73.5495 60.7428 73.1849 61.0779 72.8321C70.2927 62.7359 83.3064 56.9485 96.9753 56.8679H430.136C461.934 56.8712 487.71 82.6473 487.713 114.445C487.713 136.912 505.894 155.234 528.356 155.187C545.926 155.17 562.171 164.527 570.972 179.734C579.773 194.942 579.792 213.689 571.022 228.915C562.252 244.14 546.026 253.53 528.456 253.548H423.28C411.671 253.551 402.26 262.96 402.253 274.569C402.253 274.951 402.253 275.333 402.288 275.71C402.88 286.868 412.106 295.608 423.28 295.596H485.608C504.256 295.568 522.336 302.01 536.764 313.824C541.528 317.716 545.836 322.134 549.606 326.995C551.105 328.941 552.546 330.952 553.863 333.034C557.203 338.259 559.928 343.853 561.983 349.704Z" fill="#F0F3F9"/>
<rect x="523.881" y="533.413" width="43.5473" height="10.3547" rx="5.17734" fill="#34629B"/>
<rect x="43.4203" y="533.413" width="476.245" height="10.3547" rx="5.17734" fill="#34629B"/>
<path d="M334.551 56.9091V315.165C334.552 316.466 334.036 317.715 333.117 318.636C332.197 319.557 330.949 320.074 329.647 320.074H44.3258C46.0114 318.506 47.7499 317.023 49.5414 315.623C52.2929 313.482 55.178 311.518 58.1791 309.743C59.1904 309.14 60.2038 308.552 61.219 307.979C61.3249 307.915 61.4484 307.85 61.5601 307.791C67.8975 304.402 74.5572 301.655 81.4404 299.588L81.8696 299.459C84.9056 298.551 87.7468 297.088 90.2486 295.143C95.6718 290.924 99.1941 284.722 100.039 277.903C100.172 276.842 100.236 275.774 100.233 274.704V249.432C100.233 248.779 100.233 248.133 100.286 247.492C100.921 235.409 107.416 224.397 117.685 217.998C118.821 217.282 119.999 216.636 121.213 216.063C122.817 215.277 124.48 214.616 126.187 214.087C129.238 213.128 132.4 212.569 135.595 212.423H135.748C136.271 212.423 136.795 212.388 137.312 212.388C137.859 212.388 138.406 212.388 138.941 212.341C139.476 212.294 139.864 212.282 140.311 212.229C150.145 211.186 158.742 205.135 163.043 196.23C163.378 195.559 163.672 194.877 163.937 194.184C165.223 190.883 165.881 187.371 165.877 183.829C165.883 170.286 156.377 158.601 143.116 155.852C142.187 155.664 141.252 155.517 140.305 155.417C139.846 155.37 139.394 155.329 138.935 155.311C138.476 155.293 137.853 155.258 137.306 155.258H97.3222C91.9216 155.262 86.5575 154.374 81.4462 152.63C79.005 151.801 76.6354 150.774 74.3608 149.56C73.2848 148.972 72.2264 148.384 71.2092 147.737L71.1327 147.69C68.9817 146.338 66.9408 144.819 65.0293 143.145C63.2679 141.607 61.6192 139.945 60.096 138.171C59.0787 136.995 58.1026 135.748 57.1971 134.466C55.3691 131.896 53.7937 129.155 52.4931 126.281C51.7555 124.642 51.1135 122.962 50.5704 121.248C49.6987 118.581 49.0632 115.842 48.6711 113.063C48.4334 111.398 48.2822 109.722 48.2184 108.042C48.2184 107.389 48.1772 106.73 48.1772 106.066C48.1785 103.992 48.3081 101.92 48.5653 99.8625C48.7778 98.1742 49.078 96.498 49.4649 94.841C49.6884 93.8531 49.9588 92.8829 50.247 91.901C51.0054 89.3817 51.9609 86.9261 53.1046 84.5568C53.9091 82.9001 54.8103 81.2921 55.8036 79.7411C56.831 78.1067 57.9561 76.5359 59.1728 75.0371C59.4786 74.6608 59.7608 74.2904 60.1018 73.9199C60.4429 73.5495 60.7428 73.1849 61.0779 72.8321C70.2927 62.7359 83.3064 56.9485 96.9753 56.8679H334.527L334.551 56.9091Z" fill="#6E8EC8"/>
<path d="M325.008 56.9091V303.087V303.587C324.992 303.751 324.965 303.914 324.925 304.075C324.925 304.198 324.872 304.316 324.843 304.434C324.814 304.551 324.767 304.663 324.737 304.775C324.698 304.879 324.653 304.981 324.602 305.08C324.555 305.198 324.496 305.316 324.443 305.427C324.368 305.568 324.284 305.704 324.19 305.833C324.105 305.965 324.011 306.091 323.908 306.209C323.812 306.333 323.706 306.449 323.591 306.556C323.484 306.669 323.37 306.776 323.25 306.874C323.12 306.974 322.997 307.068 322.867 307.156C322.739 307.246 322.606 307.329 322.467 307.403C322.328 307.48 322.185 307.548 322.038 307.609C321.891 307.668 321.738 307.726 321.585 307.773C321.433 307.82 321.274 307.862 321.109 307.897C320.786 307.963 320.457 307.996 320.127 307.997H61.2191C61.3249 307.932 61.4484 307.867 61.5601 307.809C67.8975 304.42 74.5573 301.672 81.4404 299.606L81.8696 299.477C84.9057 298.569 87.7468 297.106 90.2486 295.161C95.6718 290.942 99.1942 284.739 100.039 277.921C100.172 276.86 100.237 275.791 100.233 274.722V249.432C100.233 248.779 100.233 248.133 100.286 247.492C100.921 235.409 107.416 224.397 117.685 217.998C118.821 217.282 119.999 216.636 121.213 216.063C122.817 215.277 124.48 214.616 126.187 214.087C129.238 213.128 132.4 212.569 135.595 212.423H135.748C136.271 212.423 136.795 212.388 137.312 212.388C137.859 212.388 138.406 212.388 138.941 212.341C139.476 212.294 139.864 212.282 140.311 212.229C150.145 211.186 158.742 205.135 163.043 196.23C163.378 195.559 163.672 194.877 163.937 194.184C165.223 190.883 165.881 187.371 165.877 183.829C165.883 170.286 156.377 158.601 143.116 155.852C142.187 155.664 141.252 155.517 140.305 155.417C139.846 155.37 139.394 155.329 138.935 155.311C138.476 155.293 137.853 155.258 137.306 155.258H97.3223C91.9217 155.262 86.5575 154.374 81.4463 152.63C79.0051 151.801 76.6354 150.774 74.3609 149.56C73.2848 148.972 72.2264 148.384 71.2092 147.737L71.1328 147.69C68.9817 146.338 66.9409 144.819 65.0293 143.145C63.2679 141.607 61.6192 139.945 60.096 138.171C59.0788 136.995 58.1027 135.748 57.1972 134.466C55.3691 131.896 53.7938 129.155 52.4932 126.281C51.7555 124.642 51.1135 122.962 50.5704 121.248C49.6987 118.581 49.0632 115.842 48.6712 113.063C48.4334 111.398 48.2823 109.722 48.2184 108.042C48.2184 107.389 48.1772 106.73 48.1772 106.066C48.1785 103.992 48.3081 101.92 48.5653 99.8625C48.7778 98.1741 49.0781 96.498 49.465 94.841C49.6884 93.8531 49.9589 92.8829 50.247 91.901C51.0054 89.3817 51.9609 86.9261 53.1047 84.5568C53.9091 82.9001 54.8103 81.292 55.8036 79.7411C56.831 78.1067 57.9561 76.5359 59.1728 75.0371C59.4786 74.6608 59.7608 74.2904 60.1019 73.9199C60.4429 73.5495 60.7428 73.1849 61.078 72.8321C70.2928 62.7359 83.3065 56.9485 96.9754 56.8679H325.008V56.9091Z" fill="#E9F1FF"/>
<path d="M325.008 74.9547V303.099C325.004 305.807 322.812 308.002 320.104 308.009H166.971V103.02L167.341 102.767L173.221 98.7923L193.572 84.9684H226.177L232.839 81.3992L235.884 79.7705L237.56 78.8708L244.616 75.0841L261.08 66.2641L277.95 70.092V90.4015H286.705V56.8855H301.452L306.056 61.4895V74.9312L325.008 74.9547Z" fill="#B3C9EB"/>
<path d="M288.24 114.433V307.997H320.092C322.804 307.997 325.002 305.799 325.002 303.087V100.986H312.848L288.24 114.433Z" fill="#819FCC"/>
<path d="M193.566 84.9684H207.584V307.997H193.566V84.9684Z" fill="#819FCC"/>
<path d="M81.4404 74.0963V152.6C78.9992 151.771 76.6295 150.745 74.355 149.531C73.279 148.943 72.2206 148.355 71.2033 147.708L71.1269 147.661C68.9758 146.309 66.935 144.789 65.0234 143.116C63.2651 141.587 61.6184 139.934 60.096 138.171C59.0788 136.995 58.1027 135.748 57.1972 134.466C55.3691 131.896 53.7938 129.155 52.4932 126.281C51.7555 124.642 51.1135 122.962 50.5704 121.248C49.6987 118.581 49.0632 115.842 48.6712 113.063C48.4334 111.398 48.2823 109.722 48.2184 108.042C48.2184 107.389 48.1772 106.73 48.1772 106.066C48.1785 103.992 48.3081 101.92 48.5653 99.8625C48.7778 98.1741 49.0781 96.498 49.465 94.841C49.6884 93.8531 49.9589 92.8829 50.247 91.901C51.0054 89.3817 51.9609 86.9261 53.1047 84.5568L66.123 79.7411L78.7709 75.0371L81.4404 74.0963Z" fill="#B3C9EB"/>
<path d="M61.5601 307.809C67.8975 304.42 74.5572 301.672 81.4404 299.606V307.997H61.2191C61.3249 307.932 61.4484 307.867 61.5601 307.809Z" fill="#B3C9EB"/>
<path d="M100.039 112.14V155.229H97.334C91.9334 155.232 86.5692 154.344 81.458 152.6V100.986L100.039 112.14Z" fill="#88A5D2"/>
<path d="M100.039 277.921V307.997H81.4404V299.606L81.8696 299.477C84.9056 298.569 87.7468 297.106 90.2486 295.161C95.6718 290.942 99.1941 284.739 100.039 277.921V277.921Z" fill="#88A5D2"/>
<path d="M138.929 94.1236V155.276C138.394 155.24 137.847 155.223 137.3 155.223H121.201V86.6854L135.572 92.7183L138.929 94.1236Z" fill="#B3C9EB"/>
<path d="M137.3 212.388C137.847 212.388 138.394 212.388 138.929 212.341V307.997H121.201V216.057C122.805 215.271 124.469 214.61 126.175 214.082C129.226 213.122 132.389 212.563 135.583 212.418H135.736C136.26 212.418 136.783 212.382 137.3 212.382V212.388Z" fill="#B3C9EB"/>
<path d="M121.195 86.6854V155.229H108.042V91.2601L118.531 87.6145L121.195 86.6854Z" fill="#819FCC"/>
<path d="M117.685 217.992C118.821 217.276 119.999 216.63 121.213 216.057V307.997H108.047V226.676C110.725 223.239 113.988 220.299 117.685 217.992Z" fill="#819FCC"/>
<path d="M273.352 98.7806H227.07V93.8297H273.352V98.7806Z" fill="#D1DEF5"/>
<path d="M170.752 122.212L190.509 121.577V96.3052L170.752 109.594V122.212Z" fill="#D1DEF5"/>
<path d="M273.352 114.986H227.07V110.035H273.352V114.986Z" fill="#D1DEF5"/>
<path d="M273.352 131.191H227.07V126.24H273.352V131.191Z" fill="#D1DEF5"/>
<path d="M273.352 147.396H227.07V142.446H273.352V147.396Z" fill="#D1DEF5"/>
<path d="M273.352 163.596H227.07V158.645H273.352V163.596Z" fill="#D1DEF5"/>
<path d="M273.352 179.801H227.07V174.85H273.352V179.801Z" fill="#D1DEF5"/>
<path d="M273.352 196.012H227.07V191.061H273.352V196.012Z" fill="#D1DEF5"/>
<path d="M273.352 212.218H227.07V207.267H273.352V212.218Z" fill="#D1DEF5"/>
<path d="M273.352 228.423H227.07V223.472H273.352V228.423Z" fill="#D1DEF5"/>
<path d="M273.352 244.622H227.07V239.671H273.352V244.622Z" fill="#D1DEF5"/>
<path d="M273.352 260.828H227.07V255.877H273.352V260.828Z" fill="#D1DEF5"/>
<path d="M273.352 277.033H227.07V272.082H273.352V277.033Z" fill="#D1DEF5"/>
<path d="M273.352 293.238H227.07V288.287H273.352V293.238Z" fill="#D1DEF5"/>
<path d="M190.514 169.599H170.758V129.539H190.514V169.599Z" fill="#D1DEF5"/>
<path d="M190.514 218.88H170.758V178.819H190.514V218.88Z" fill="#D1DEF5"/>
<path d="M190.514 268.166H170.758V228.105H190.514V268.166Z" fill="#D1DEF5"/>
<path d="M190.514 298.959H170.758V274.557H190.514V298.959Z" fill="#D1DEF5"/>
<path d="M74.3491 99.8625H65.0881V94.841H74.3491V99.8625Z" fill="#D1DEF5"/>
<path d="M136.636 106.201H123.753V91.5129L136.636 97.5576V106.201Z" fill="#D1DEF5"/>
<path d="M57.203 94.8469V99.8684H48.5653C48.7778 98.1801 49.0781 96.504 49.4649 94.8469H57.203Z" fill="#D1DEF5"/>
<path d="M74.3491 113.069H65.0881V108.047H74.3491V113.069Z" fill="#D1DEF5"/>
<path d="M57.203 108.047V113.069H48.6711C48.4334 111.404 48.2823 109.728 48.2184 108.047H57.203Z" fill="#D1DEF5"/>
<path d="M74.3491 126.27H65.0881V121.248H74.3491V126.27Z" fill="#D1DEF5"/>
<path d="M57.203 121.248V126.264H52.499C51.76 124.63 51.1161 122.956 50.5704 121.248H57.203Z" fill="#D1DEF5"/>
<path d="M74.3491 139.476H65.0881V134.455H74.3491V139.476Z" fill="#D1DEF5"/>
<path d="M74.355 147.661V149.531C73.279 148.943 72.2206 148.355 71.2033 147.708L71.1269 147.661H74.355Z" fill="#D1DEF5"/>
<path d="M136.63 117.785H123.747V110.558H136.63V117.785Z" fill="#D1DEF5"/>
<path d="M136.636 130.139H131.903V122.912H136.636V130.139Z" fill="#D1DEF5"/>
<path d="M128.48 130.139H123.747V122.912H128.48V130.139Z" fill="#D1DEF5"/>
<path d="M136.63 144.415H123.747V137.189H136.63V144.415Z" fill="#D1DEF5"/>
<path d="M131.897 149.543H136.63V155.229H131.897V149.543Z" fill="#D1DEF5"/>
<path d="M123.753 149.543H128.486V155.229H123.753V149.543Z" fill="#D1DEF5"/>
<path d="M136.63 223.878H123.747V216.651H136.63V223.878Z" fill="#D1DEF5"/>
<path d="M136.636 236.237H131.903V229.011H136.636V236.237Z" fill="#D1DEF5"/>
<path d="M128.48 236.237H123.747V229.011H128.48V236.237Z" fill="#D1DEF5"/>
<path d="M136.63 250.297H123.747V243.07H136.63V250.297Z" fill="#D1DEF5"/>
<path d="M136.636 262.656H131.903V255.43H136.636V262.656Z" fill="#D1DEF5"/>
<path d="M128.48 262.656H123.747V255.43H128.48V262.656Z" fill="#D1DEF5"/>
<path d="M136.63 276.715H123.747V269.489H136.63V276.715Z" fill="#D1DEF5"/>
<path d="M136.636 289.075H131.903V281.849H136.636V289.075Z" fill="#D1DEF5"/>
<path d="M128.48 289.075H123.747V281.849H128.48V289.075Z" fill="#D1DEF5"/>
<path opacity="0.51" d="M325.008 249.162V303.087C325.004 305.795 322.812 307.99 320.104 307.997L288.24 262.621L273.352 241.412L272.123 239.648L264.226 228.393L260.751 223.442L252.848 212.212L249.379 207.261L241.482 196.012L237.995 191.055L237.56 190.432L232.856 183.711L230.116 179.807L227.088 175.485L207.578 147.708L193.572 127.769L189.25 121.613L177.578 105.002L173.204 98.7629L159.874 79.7705L156.575 75.0665L143.821 56.9091H190.044L202.804 75.0841L206.09 79.7881L209.742 84.9861L227.341 110.053L230.81 115.003L232.844 117.902L237.548 124.629L238.695 126.258L242.176 131.209L250.073 142.463L253.554 147.414L261.451 158.668L264.932 163.619L272.823 174.874L273.346 175.609L288.24 196.8L325.008 249.162Z" fill="white"/>
<path opacity="0.51" d="M311.448 307.997H289.328L288.24 306.456L267.589 277.033L264.108 272.082L256.206 260.827L252.737 255.877L244.834 244.622L241.353 239.671L237.56 234.268L233.45 228.417L232.844 227.547L229.981 223.466L207.578 191.567L193.572 171.604L190.514 167.253L170.752 139.111L166.965 133.719L140.299 95.7288L135.578 89.0021L129.092 79.7705L125.805 75.0841L113.039 56.9091H135.16L135.578 57.4971L140.299 64.2179L147.926 75.0841L151.218 79.7705L167.335 102.738L171.704 108.953L180.783 121.889L186.151 129.539L190.514 135.742L193.572 140.099L207.578 160.056L229.34 191.055L232.821 196.012L232.844 196.036L237.56 202.762L240.724 207.261L244.199 212.212L252.102 223.466L255.571 228.417L263.473 239.671L266.954 244.622L288.24 274.951L311.448 307.997Z" fill="white"/>
<path opacity="0.51" d="M273.252 307.997H259.581L249.226 293.238L245.751 288.287L237.848 277.033L237.56 276.633L234.373 272.082L232.839 269.906L207.555 233.926L193.572 213.97L190.514 209.613L170.758 181.477L166.971 176.079L140.299 138.094L138.929 136.148L135.572 131.368L134.713 130.139L131.897 126.134L126.017 117.785L123.729 114.527L121.177 110.887L108.024 92.1538L99.3273 79.7705L96.0404 75.0665L84.4686 58.6025C88.5396 57.5041 92.7353 56.935 96.9518 56.9091L109.711 75.0783L112.998 79.7823L118.508 87.6262L121.177 91.4305L123.729 95.0644L131.55 106.236L134.607 110.593L135.548 111.934L136.612 113.439L138.906 116.715L140.276 118.655L166.947 156.646L170.734 162.043L176.061 169.635L182.529 178.86L190.479 190.185L193.537 194.536L207.543 214.499L227.088 242.217L228.77 244.622L232.856 250.443L236.678 255.877L237.578 257.164L240.153 260.827L248.05 272.082L251.525 277.033L259.428 288.287L262.903 293.238L273.252 307.997Z" fill="white"/>
<path d="M328.295 75.0841V79.7881H55.8036C56.831 78.1537 57.9561 76.5829 59.1728 75.0841L328.295 75.0841Z" fill="#6E8EC8"/>
<path d="M138.929 212.329C139.388 212.329 139.852 212.27 140.299 212.218V307.997H135.595V212.417H135.748C136.271 212.417 136.795 212.382 137.312 212.382C137.847 212.388 138.394 212.388 138.929 212.329Z" fill="#6E8EC8"/>
<path d="M140.299 56.9973V155.387C139.841 155.34 139.388 155.299 138.929 155.282C138.47 155.264 137.847 155.229 137.3 155.229H135.572V56.9268L140.299 56.9973Z" fill="#6E8EC8"/>
<path d="M232.839 56.9091H237.56V307.997H232.839V56.9091Z" fill="#6E8EC8"/>
<path d="M63.9121 389.247C64.9823 390.117 66.0289 391.009 67.052 391.922C70.4352 394.901 73.6265 398.09 76.607 401.471C83.4791 409.229 89.2199 417.919 93.659 427.284C100.634 442.01 104.249 458.101 104.243 474.395V497.603C104.25 508.487 100.971 519.119 94.835 528.109H130.568C124.428 519.121 121.149 508.488 121.16 497.603V474.395C121.16 447.532 130.99 421.597 148.796 401.483C151.757 398.099 154.929 394.906 158.292 391.922C159.315 391.009 160.362 390.117 161.432 389.247L63.9121 389.247Z" fill="#547DBA"/>
<path d="M63.9121 389.247C64.9823 390.117 66.0289 391.009 67.052 391.922H76.1837C75.1566 391.009 74.11 390.117 73.0437 389.247H63.9121Z" fill="#34629B"/>
<rect x="141.352" y="533.465" width="57.377" height="5.36256" rx="2.68128" transform="rotate(-180 141.352 533.465)" fill="#6E8EC8"/>
<path d="M83.9805 530.784C83.9805 532.263 85.1774 533.462 86.6559 533.465H104.725C103.738 533.512 102.806 533.012 102.299 532.164C101.792 531.316 101.792 530.258 102.299 529.41C102.806 528.563 103.738 528.063 104.725 528.109H86.6559C85.9459 528.107 85.2645 528.389 84.7624 528.891C84.2603 529.393 83.979 530.074 83.9805 530.784Z" fill="#547DBA"/>
<rect x="174.427" y="391.928" width="123.521" height="11.172" rx="5.586" transform="rotate(-180 174.427 391.928)" fill="#6E8EC8"/>
<path d="M50.9055 386.342C50.9055 387.823 51.4942 389.243 52.542 390.29C53.5897 391.336 55.0106 391.924 56.4915 391.922H85.2741C82.1891 391.922 79.6881 389.421 79.6881 386.336C79.6881 383.251 82.1891 380.75 85.2741 380.75H56.4915C55.0096 380.745 53.587 381.332 52.5385 382.379C51.4901 383.426 50.9024 384.848 50.9055 386.33V386.342Z" fill="#547DBA"/>
<path d="M67.052 391.922C70.4351 394.901 73.6265 398.09 76.607 401.471C83.4791 409.229 89.2199 417.919 93.659 427.284C100.634 442.01 104.249 458.101 104.243 474.395V497.603C104.25 508.487 100.971 519.119 94.835 528.109H103.967C110.102 519.119 113.381 508.487 113.375 497.603V474.395C113.381 458.101 109.766 442.01 102.791 427.284C102.744 427.19 102.702 427.096 102.655 427.008C97.0047 415.16 105.513 401.471 118.637 401.471H148.737C151.717 398.09 154.909 394.901 158.292 391.922H67.052Z" fill="#34629B"/>
<path d="M415.565 389.247C416.636 390.117 417.682 391.009 418.705 391.922C422.089 394.901 425.28 398.09 428.26 401.471C446.064 421.587 455.893 447.521 455.896 474.383V497.592C455.895 508.479 452.604 519.113 446.453 528.097H482.186C476.042 519.11 472.753 508.478 472.748 497.592V474.395C472.744 447.531 482.575 421.595 500.384 401.483C503.358 398.1 506.542 394.906 509.916 391.922C510.947 391.009 511.994 390.117 513.056 389.247H415.565Z" fill="#547DBA"/>
<path d="M415.565 389.247C416.636 390.117 417.682 391.009 418.705 391.922H427.837C426.814 391.009 425.767 390.117 424.697 389.247H415.565Z" fill="#34629B"/>
<rect x="493.011" y="533.465" width="57.377" height="5.36256" rx="2.68128" transform="rotate(-180 493.011 533.465)" fill="#6E8EC8"/>
<path d="M435.634 530.784C435.634 532.263 436.831 533.462 438.309 533.465H456.408C455.421 533.512 454.489 533.012 453.982 532.164C453.474 531.316 453.474 530.258 453.982 529.41C454.489 528.563 455.421 528.063 456.408 528.109H438.309C436.833 528.112 435.637 529.308 435.634 530.784H435.634Z" fill="#547DBA"/>
<rect x="526.08" y="391.928" width="123.521" height="11.172" rx="5.586" transform="rotate(-180 526.08 391.928)" fill="#6E8EC8"/>
<path d="M402.559 386.342C402.561 387.824 403.151 389.244 404.199 390.29C405.248 391.337 406.669 391.924 408.151 391.922H436.928C433.842 391.922 431.342 389.421 431.342 386.336C431.342 383.251 433.842 380.75 436.928 380.75H408.151C406.669 380.747 405.247 381.334 404.197 382.38C403.148 383.427 402.559 384.848 402.559 386.33L402.559 386.342Z" fill="#547DBA"/>
<path d="M418.705 391.922C422.089 394.901 425.28 398.09 428.26 401.471C446.064 421.587 455.893 447.521 455.896 474.383V497.592C455.895 508.479 452.604 519.113 446.453 528.097H455.585C461.733 519.111 465.024 508.479 465.028 497.592V474.395C465.034 458.101 461.419 442.01 454.444 427.284C454.403 427.19 454.356 427.096 454.309 427.008C448.658 415.16 457.167 401.471 470.291 401.471H500.396C503.367 398.092 506.546 394.903 509.916 391.922H418.705Z" fill="#34629B"/>
<path d="M229.934 321.215C231.502 322.497 233.042 323.81 234.556 325.155C239.53 329.54 244.225 334.231 248.615 339.202C274.817 368.815 289.283 406.989 289.287 446.53V480.681C289.283 496.705 284.441 512.355 275.392 525.58H327.977C318.937 512.353 314.104 496.702 314.112 480.681V446.53C314.109 406.989 328.573 368.813 354.778 339.202C359.154 334.233 363.836 329.541 368.796 325.155C370.309 323.814 371.85 322.501 373.418 321.215L229.934 321.215Z" fill="#547DBA"/>
<path d="M229.934 321.215C231.502 322.497 233.042 323.81 234.556 325.155H247.991C246.482 323.814 244.942 322.501 243.37 321.215H229.934Z" fill="#34629B"/>
<rect x="343.906" y="533.465" width="84.4427" height="7.89096" rx="3.94548" transform="rotate(-180 343.906 533.465)" fill="#6E8EC8"/>
<path d="M259.463 529.52C259.463 531.699 261.23 533.465 263.409 533.465H290.004C287.886 533.384 286.211 531.643 286.211 529.523C286.211 527.403 287.886 525.662 290.004 525.58H263.409C261.232 525.58 259.467 527.343 259.463 529.52H259.463Z" fill="#547DBA"/>
<rect x="428.943" y="325.161" width="254.522" height="11.7659" rx="5.88294" transform="rotate(-180 428.943 325.161)" fill="#6E8EC8"/>
<path d="M174.427 319.275C174.427 322.522 177.059 325.155 180.307 325.155H249.744C246.496 325.155 243.864 322.522 243.864 319.275C243.864 316.027 246.496 313.395 249.744 313.395H180.307C177.059 313.395 174.427 316.027 174.427 319.275H174.427Z" fill="#547DBA"/>
<path d="M234.556 325.155C239.53 329.54 244.225 334.231 248.615 339.202C274.817 368.815 289.283 406.989 289.287 446.53V480.681C289.283 496.705 284.441 512.355 275.392 525.58H288.828C297.876 512.355 302.719 496.705 302.722 480.681V446.53C302.728 422.55 297.403 398.868 287.135 377.199C287.064 377.063 286.999 376.922 286.935 376.787C278.62 359.359 291.139 339.202 310.455 339.202H354.755C359.138 334.232 363.828 329.54 368.796 325.155L234.556 325.155Z" fill="#34629B"/>
<path d="M247.533 305.662H250.055C251.387 305.662 252.466 306.742 252.466 308.073V309.479H245.122V308.073C245.122 306.742 246.201 305.662 247.533 305.662Z" fill="#D7E2FF"/>
<path d="M240.189 305.662H242.711C244.043 305.662 245.122 306.742 245.122 308.073V309.479H237.778V308.073C237.778 306.742 238.857 305.662 240.189 305.662Z" fill="#D7E2FF"/>
<path d="M232.845 305.662H235.367C236.698 305.662 237.778 306.742 237.778 308.073V309.479H230.434V308.073C230.434 306.742 231.513 305.662 232.845 305.662Z" fill="#D7E2FF"/>
<path d="M225.5 305.662H228.023C228.662 305.662 229.276 305.916 229.728 306.369C230.18 306.821 230.434 307.434 230.434 308.073V309.479H223.09V308.073C223.09 307.434 223.344 306.821 223.796 306.369C224.248 305.916 224.861 305.662 225.5 305.662Z" fill="#D7E2FF"/>
<path d="M218.162 305.662H220.685C222.016 305.662 223.095 306.742 223.095 308.073V309.479H215.745V308.073C215.745 306.742 216.825 305.662 218.156 305.662H218.162Z" fill="#D7E2FF"/>
<path d="M210.818 305.662H213.341C214.672 305.662 215.751 306.742 215.751 308.073V309.479H208.407V308.073C208.407 307.434 208.661 306.821 209.113 306.369C209.565 305.916 210.179 305.662 210.818 305.662Z" fill="#D7E2FF"/>
<path d="M203.474 305.662H205.996C207.328 305.662 208.407 306.742 208.407 308.073V309.479H201.063V308.073C201.063 306.742 202.142 305.662 203.474 305.662Z" fill="#D7E2FF"/>
<rect x="191.302" y="307.415" width="83.8076" height="5.98584" rx="2.99292" fill="#4970DB"/>
<path d="M252.025 313.395H321.95C324.881 313.395 327.437 311.403 328.153 308.561L341.783 254.412C342.263 252.5 341.835 250.474 340.624 248.919C339.412 247.363 337.551 246.453 335.58 246.451H273.84C270.916 246.462 268.372 248.454 267.66 251.29L252.025 313.395Z" fill="#5476EF"/>
<path d="M341.783 254.412L328.153 308.561C327.435 311.402 324.88 313.393 321.95 313.395H252.025L253.548 307.415H308.82C311.753 307.414 314.309 305.42 315.023 302.576L328.653 248.427C328.815 247.781 328.877 247.115 328.836 246.451H335.574C337.546 246.451 339.409 247.361 340.622 248.916C341.835 250.472 342.263 252.499 341.783 254.412Z" fill="#4970DB"/>
<circle cx="301.282" cy="281.713" r="3.4986" fill="#D7E2FF"/>
<path d="M305.968 286.958C304.45 289.312 301.654 290.508 298.903 289.978C296.153 289.448 294 287.3 293.465 284.55C292.93 281.801 294.12 279.002 296.472 277.48C294.74 280.193 295.126 283.746 297.402 286.023C299.678 288.3 303.23 288.689 305.945 286.958H305.968Z" fill="#D7E2FF"/>
<circle cx="141.134" cy="209.383" r="12.5244" fill="#F4AD18"/>
<path d="M195.929 290.867C202.497 295.911 203.733 305.324 198.69 311.891C193.646 318.459 184.233 319.695 177.666 314.652L139.591 285.415C133.023 280.372 131.787 270.959 136.831 264.391C141.874 257.823 151.287 256.587 157.855 261.631L195.929 290.867Z" fill="#FAEEDE"/>
<circle cx="186.769" cy="301.652" r="16.0877" fill="#F2E6D7"/>
<path d="M199.303 306.693C196.115 312.742 188.627 315.062 182.578 311.874C176.529 308.686 174.21 301.198 177.398 295.149L202.216 248.057C205.404 242.008 212.892 239.689 218.941 242.877C224.989 246.065 227.309 253.553 224.121 259.601L199.303 306.693Z" fill="#FFB2BF"/>
<path d="M219.005 236.794C225.217 234.098 232.44 236.949 235.136 243.161C237.832 249.374 234.981 256.596 228.769 259.292L218.925 263.565C212.712 266.261 205.49 263.41 202.794 257.197C200.097 250.985 202.948 243.763 209.161 241.066L219.005 236.794Z" fill="#FFB2BF"/>
<path d="M234.12 230.234C236.368 229.259 238.981 230.29 239.956 232.538C240.931 234.786 239.9 237.398 237.652 238.374L214.868 248.262C212.621 249.237 210.008 248.206 209.033 245.958C208.057 243.711 209.088 241.098 211.336 240.122L234.12 230.234Z" fill="#FFB2BF"/>
<path d="M195.929 290.867C202.497 295.911 203.733 305.324 198.69 311.891C193.646 318.459 184.233 319.695 177.666 314.652L139.591 285.415C133.023 280.372 131.787 270.959 136.831 264.391C141.874 257.823 151.287 256.587 157.855 261.631L195.929 290.867Z" fill="#E1303E"/>
<circle cx="186.769" cy="301.652" r="16.0877" fill="#F63E4A"/>
<path d="M199.303 306.694C196.115 312.742 188.627 315.062 182.578 311.874C176.529 308.686 174.21 301.198 177.398 295.149L202.216 248.057C205.404 242.008 212.892 239.689 218.941 242.877C224.989 246.065 227.309 253.553 224.121 259.602L199.303 306.694Z" fill="#FFB2BF"/>
<path d="M219.005 236.794C225.217 234.098 232.439 236.949 235.136 243.161C237.832 249.374 234.981 256.596 228.769 259.292L218.925 263.565C212.712 266.261 205.49 263.41 202.794 257.197C200.097 250.985 202.948 243.763 209.161 241.066L219.005 236.794Z" fill="#FFB2BF"/>
<path d="M235.149 243.164C234.713 242.153 234.141 241.205 233.45 240.347C233.799 241.491 233.978 242.68 233.979 243.875C233.978 248.763 231.077 253.184 226.594 255.13L225.418 255.647L220.755 257.67L217.362 264.138L197.1 302.546C195.154 306.236 191.481 308.698 187.328 309.096C183.176 309.494 179.102 307.775 176.491 304.522C177.947 309.326 182.162 312.775 187.16 313.252C192.157 313.729 196.948 311.14 199.287 306.697L222.925 261.839L228.805 259.299C231.791 258.006 234.14 255.579 235.335 252.552C236.53 249.525 236.471 246.148 235.173 243.164H235.149Z" fill="#FC9AAF"/>
<path d="M234.12 230.234C236.368 229.259 238.981 230.29 239.956 232.538C240.931 234.786 239.9 237.398 237.652 238.374L214.868 248.262C212.621 249.237 210.008 248.206 209.033 245.958C208.057 243.711 209.088 241.098 211.336 240.122L234.12 230.234Z" fill="#FFB2BF"/>
<circle cx="140.293" cy="277.515" r="23.4965" fill="#E1303E"/>
<path d="M111.657 383.636C92.0899 383.192 76.5874 366.969 77.0315 347.402L78.2385 294.213C78.6825 274.646 94.9049 259.144 114.472 259.588C134.039 260.032 149.542 276.254 149.098 295.821L147.891 349.01C147.447 368.577 131.224 384.08 111.657 383.636Z" fill="#F63E4A"/>
<path d="M68.1638 274.099C68.4926 259.609 80.5052 248.129 94.9948 248.458L134.475 249.354C148.955 249.696 160.42 261.704 160.092 276.185C159.549 300.089 139.731 319.028 115.826 318.486L110.441 318.364C86.5461 317.808 67.6215 297.994 68.1638 274.099H68.1638Z" fill="#F63E4A"/>
<path d="M127.957 230.163L127.451 252.507C127.307 259.476 121.609 265.046 114.639 265.032H114.351C107.282 264.868 101.683 259.006 101.844 251.937L102.015 244.293L102.35 229.593C102.503 222.63 108.192 217.067 115.156 217.068H115.45C122.518 217.235 128.115 223.095 127.957 230.163Z" fill="#FFB2BF"/>
<path d="M96.3349 383.285C85.2282 383.033 76.4289 373.825 76.6809 362.719C76.933 351.612 86.141 342.813 97.2476 343.065L189.528 345.159C200.635 345.411 209.434 354.619 209.182 365.726C208.93 376.832 199.722 385.632 188.615 385.38L96.3349 383.285Z" fill="#252849"/>
<path d="M116.797 364.633V505.165H76.56V364.633C76.7477 353.656 85.6998 344.856 96.6784 344.856C107.657 344.856 116.609 353.656 116.797 364.633Z" fill="#30335D"/>
<path d="M116.797 487.843V505.141H76.56V494.158L116.797 487.843Z" fill="#252849"/>
<path d="M258.57 491.394L222.702 505.771L218.644 495.269L170.428 372.824C167.84 366.119 169.026 358.544 173.538 352.95C178.05 347.356 185.203 344.595 192.304 345.706C199.404 346.817 205.372 351.631 207.96 358.336L253.73 474.395L258.57 486.914V491.394Z" fill="#252849"/>
<path d="M228.405 506.516L256.556 495.648L262.511 511.073L234.36 521.941L228.405 506.516Z" fill="#FC9AAF"/>
<path d="M81.5874 508.276H111.764V523.728H81.5874V508.276Z" fill="#FFB2BF"/>
<path d="M127.957 230.163L127.451 252.507C127.425 253.681 127.239 254.847 126.899 255.971C126.581 255.971 126.264 255.971 125.94 255.971C116.575 255.978 107.735 251.646 102.003 244.24L102.338 229.54C102.491 222.578 108.18 217.014 115.145 217.016H115.439C118.844 217.093 122.079 218.523 124.428 220.99C126.777 223.457 128.047 226.758 127.957 230.163Z" fill="#FC9AAF"/>
<path d="M150.207 217.886C150.207 235.69 137.518 250.226 121.542 251.173C121.001 251.202 120.46 251.22 119.913 251.22C103.185 251.22 89.6136 236.296 89.6136 217.886C89.6136 199.476 103.185 184.552 119.913 184.552C120.46 184.552 121.001 184.552 121.542 184.599C137.518 185.534 150.207 200.081 150.207 217.886Z" fill="#FFB2BF"/>
<path d="M137.247 224.33C137.323 226.576 136.505 228.761 134.972 230.404C134.778 230.604 134.584 230.792 134.384 230.992C132.912 232.297 131.029 233.044 129.063 233.103H128.721C124.315 233.252 120.531 229.997 120.019 225.618C120.019 225.389 119.978 225.154 119.966 224.918C119.95 224.483 120.109 224.059 120.407 223.741C120.705 223.423 121.118 223.237 121.554 223.225L135.548 222.754C135.983 222.737 136.406 222.893 136.725 223.189C137.044 223.485 137.232 223.896 137.247 224.33Z" fill="#962F4A"/>
<path d="M128.845 231.792C128.862 232.229 128.835 232.666 128.763 233.097H128.716C124.31 233.246 120.528 229.99 120.019 225.612C122.033 224.957 124.237 225.286 125.971 226.501C127.705 227.716 128.767 229.676 128.839 231.792H128.845Z" fill="#E1617F"/>
<path d="M135.237 222.755C135.237 224.419 132.714 225.836 129.562 225.941C126.411 226.047 123.806 224.807 123.682 223.143L135.237 222.755Z" fill="white"/>
<path d="M150.207 217.886C150.207 235.69 137.518 250.226 121.542 251.173C121.001 251.202 120.46 251.22 119.907 251.22C118.906 251.218 117.905 251.163 116.909 251.055C132.244 249.409 144.221 235.179 144.221 217.886C144.221 200.593 132.244 186.363 116.909 184.717C117.905 184.609 118.906 184.554 119.907 184.552C120.46 184.552 121.001 184.552 121.542 184.599C137.518 185.528 150.207 200.087 150.207 217.886Z" fill="#FC9AAF"/>
<path d="M94.8879 273.575V273.887C94.5939 283.883 87.9201 291.833 79.7705 291.95H79.2471C70.7682 291.727 64.0356 283.13 64.2061 272.758C64.3002 267.019 65.5174 262.368 68.9101 259.011C70.9258 257.148 73.3209 255.744 75.9308 254.895C77.2109 254.517 78.5422 254.343 79.8763 254.377C80.7704 254.399 81.6595 254.517 82.5282 254.73C89.6842 256.488 95.0349 264.308 94.8879 273.575Z" fill="#E1303E"/>
<path d="M95.4936 273.187V273.505C95.2349 280.731 91.6775 286.905 86.6266 289.933C89.2544 286.398 90.7249 282.136 90.8367 277.732C90.8367 277.621 90.8367 277.521 90.8367 277.409C91.0425 268.001 85.5447 260.057 78.1653 258.334C77.268 258.126 76.3519 258.01 75.4311 257.987C74.0543 257.959 72.6815 258.146 71.3621 258.54C70.2105 258.881 69.1077 259.369 68.0811 259.993C70.0575 257.305 72.8375 255.316 76.0191 254.312C77.3388 253.92 78.7115 253.736 80.088 253.766C81.0091 253.785 81.9256 253.901 82.8222 254.113C90.2193 255.829 95.6994 263.773 95.4936 273.187Z" fill="#E1303E"/>
<path d="M68.9706 324.311C65.4801 331.82 56.563 335.078 49.0536 331.588C41.5442 328.097 38.2863 319.18 41.7768 311.671L62.0112 268.139C65.5017 260.63 74.4188 257.372 81.9282 260.863C89.4376 264.353 92.6955 273.27 89.205 280.78L68.9706 324.311Z" fill="#F63E4A"/>
<path d="M89.7665 269.559C86.8301 264.929 81.6004 262.27 76.129 262.627C70.6576 262.983 65.8171 266.298 63.5064 271.27L43.2733 314.782C41.6291 318.3 41.4182 322.319 42.6853 325.99C39.9524 321.682 39.6022 316.279 41.7563 311.654L61.9894 268.142C64.5616 262.596 70.2446 259.168 76.3503 259.48C82.4561 259.791 87.7606 263.78 89.7547 269.559H89.7665Z" fill="#FF5566"/>
<circle cx="56.2387" cy="317.91" r="16.0877" fill="#E1303E"/>
<rect x="83.6277" y="178.878" width="74.2409" height="29.0296" rx="14.5148" fill="#FFC535"/>
<circle cx="92.1008" cy="209.383" r="12.5244" fill="#FFC535"/>
<circle cx="89.9488" cy="217.886" r="10.0372" fill="#FFB2BF"/>
<path d="M116.791 531.402H78.4474C78.4467 522.069 85.1673 514.092 94.3646 512.509C95.4402 512.322 96.5303 512.229 97.6221 512.233C102.707 512.23 107.584 514.248 111.18 517.844C114.775 521.439 116.794 526.317 116.791 531.402Z" fill="#E1303E"/>
<path d="M116.791 531.402H107.936C107.936 522.845 102.474 515.244 94.3646 512.515C95.4402 512.327 96.5303 512.235 97.6221 512.239C102.706 512.236 107.583 514.253 111.178 517.848C114.773 521.442 116.793 526.318 116.791 531.402Z" fill="#F63E4A"/>
<path d="M122.101 527.938C122.099 528.311 122.062 528.684 121.989 529.05C121.948 529.232 121.907 529.408 121.854 529.585C121.801 529.761 121.73 529.926 121.665 530.09C121.456 530.583 121.177 531.042 120.836 531.455C120.727 531.592 120.609 531.721 120.484 531.843C120.362 531.968 120.233 532.086 120.095 532.195C119.104 533.017 117.855 533.464 116.567 533.46H75.6544C73.3553 533.516 71.4453 531.699 71.3885 529.399C71.3317 527.1 73.1495 525.19 75.4486 525.134L106.125 523.087L116.303 522.411C117.22 522.363 118.134 522.547 118.961 522.946C119.199 523.061 119.429 523.193 119.649 523.34C119.868 523.492 120.078 523.657 120.278 523.834C120.475 524.015 120.658 524.212 120.825 524.422C120.936 524.557 121.048 524.698 121.148 524.845C121.604 525.522 121.905 526.291 122.03 527.097C122.074 527.376 122.098 527.657 122.101 527.938Z" fill="#E1303E"/>
<path d="M122.101 527.938C122.099 528.311 122.062 528.684 121.989 529.05C121.953 529.23 121.908 529.409 121.854 529.585C121.795 529.755 121.736 529.926 121.665 530.09C121.456 530.583 121.177 531.042 120.836 531.455C120.727 531.592 120.609 531.721 120.484 531.843C120.362 531.968 120.233 532.086 120.095 532.195C119.104 533.017 117.855 533.464 116.567 533.46H103.449C105.97 533.456 108.17 531.75 108.8 529.309C109.429 526.868 108.329 524.31 106.125 523.087L116.303 522.411C117.22 522.363 118.134 522.547 118.961 522.946C119.2 523.059 119.43 523.191 119.649 523.34C120.091 523.638 120.487 523.998 120.825 524.41C120.941 524.545 121.049 524.686 121.148 524.834C121.604 525.51 121.905 526.279 122.03 527.086C122.075 527.368 122.098 527.653 122.101 527.938Z" fill="#F63E4A"/>
<path d="M232.864 513.074L258.66 502.231L263.543 513.847L232.743 526.794L229.964 520.181C228.802 517.417 230.1 514.236 232.864 513.074V513.074Z" fill="#F63E4A"/>
<path d="M286.829 508.193L251.484 523.052C248.83 516.738 249.746 509.488 253.886 504.033C258.027 498.577 264.764 495.745 271.559 496.603C278.354 497.461 284.175 501.879 286.829 508.193Z" fill="#E1303E"/>
<path d="M286.829 508.193L276.897 512.362C273.597 504.523 265.529 499.793 257.076 500.743C261.764 496.942 267.967 495.568 273.822 497.033C279.676 498.499 284.501 502.632 286.846 508.193H286.829Z" fill="#F63E4A"/>
<path d="M230.404 525.11L281.184 500.814C282.547 500.16 284.119 500.093 285.533 500.63C286.946 501.167 288.078 502.26 288.663 503.654C289.234 505.004 289.245 506.526 288.694 507.885C288.143 509.244 287.074 510.327 285.723 510.898L233.832 532.707C232.814 533.137 231.667 533.144 230.643 532.727C229.62 532.31 228.804 531.503 228.376 530.484C227.513 528.439 228.405 526.075 230.404 525.11Z" fill="#E1303E"/>
<path d="M288.663 503.66C289.849 506.47 288.533 509.71 285.723 510.898L273.628 515.978C274.983 515.417 276.056 514.334 276.603 512.974C277.302 511.3 277.133 509.39 276.153 507.864C275.173 506.338 273.506 505.391 271.694 505.33L281.184 500.814C282.548 500.16 284.12 500.094 285.534 500.632C286.948 501.17 288.079 502.265 288.663 503.66Z" fill="#F63E4A"/>
<path d="M127.1 310.181C129.55 310.402 131.358 312.567 131.137 315.017C130.917 317.467 128.752 319.274 126.301 319.054L112.489 317.811C110.039 317.59 108.232 315.425 108.452 312.975C108.673 310.525 110.838 308.717 113.288 308.938L127.1 310.181Z" fill="#FC9AAF"/>
<circle cx="112.74" cy="316.252" r="8.73768" fill="#FC9AAF"/>
<path d="M54.8717 332.729C48.0346 332.797 42.4369 327.309 42.3688 320.472C42.3008 313.635 47.7883 308.037 54.6254 307.969L107.854 307.44C114.692 307.372 120.289 312.859 120.357 319.696C120.425 326.534 114.938 332.131 108.101 332.199L54.8717 332.729Z" fill="#FFB2BF"/>
<path d="M125.747 316.947C131.071 321.134 131.993 328.843 127.807 334.167C123.62 339.49 115.911 340.412 110.587 336.226L102.152 329.593C96.8282 325.407 95.9062 317.697 100.092 312.374C104.279 307.05 111.988 306.128 117.312 310.314L125.747 316.947Z" fill="#FFB2BF"/>
<path d="M138.702 327.134C140.628 328.648 140.962 331.438 139.447 333.364C137.933 335.29 135.144 335.623 133.217 334.109L113.694 318.756C111.768 317.241 111.434 314.452 112.949 312.526C114.463 310.6 117.252 310.267 119.178 311.781L138.702 327.134Z" fill="#FFB2BF"/>
<path d="M127.1 310.181C129.55 310.402 131.358 312.567 131.137 315.017C130.917 317.467 128.752 319.274 126.301 319.054L112.489 317.811C110.039 317.59 108.232 315.425 108.452 312.975C108.673 310.525 110.838 308.717 113.288 308.938L127.1 310.181Z" fill="#FC9AAF"/>
<circle cx="112.74" cy="316.252" r="8.73768" fill="#FC9AAF"/>
<path d="M54.8717 332.729C48.0346 332.797 42.4369 327.309 42.3688 320.472C42.3008 313.635 47.7883 308.037 54.6254 307.969L107.854 307.44C114.692 307.372 120.289 312.859 120.357 319.696C120.425 326.534 114.938 332.131 108.101 332.199L54.8717 332.729Z" fill="#FFB2BF"/>
<path d="M125.747 316.947C131.071 321.134 131.993 328.843 127.807 334.167C123.62 339.49 115.911 340.412 110.587 336.226L102.152 329.593C96.8282 325.407 95.9062 317.697 100.092 312.374C104.279 307.05 111.988 306.128 117.312 310.314L125.747 316.947Z" fill="#FFB2BF"/>
<path d="M129.039 331.041C127.03 333.6 124.085 335.255 120.854 335.641C117.624 336.027 114.372 335.112 111.816 333.099L110.399 331.987L106.795 329.153L101.709 329.2L56.0976 329.653C52.8138 329.686 49.6516 328.412 47.307 326.113C44.9625 323.814 43.6277 320.677 43.5967 317.393V317.27C43.5957 316.267 43.7162 315.268 43.9554 314.294C42.9067 316.147 42.3575 318.24 42.3619 320.368V320.492C42.3929 323.776 43.7277 326.912 46.0722 329.212C48.4168 331.511 51.579 332.785 54.8628 332.752L105.56 332.252L110.588 336.203C113.863 338.773 118.218 339.507 122.154 338.151C126.09 336.796 129.07 333.536 130.068 329.494C129.765 330.035 129.421 330.552 129.039 331.041Z" fill="#FDC3CD"/>
<path d="M138.702 327.134C140.628 328.648 140.962 331.438 139.447 333.364C137.933 335.29 135.144 335.623 133.217 334.109L113.694 318.756C111.768 317.241 111.434 314.452 112.949 312.526C114.463 310.6 117.252 310.267 119.178 311.781L138.702 327.134Z" fill="#FFB2BF"/>
<path d="M258.569 491.394L222.707 505.771L218.65 495.269L253.718 474.395L258.552 486.914L258.569 491.394Z" fill="#171A33"/>
<path d="M116.791 508.364H76.56L72.4557 498.027L124.117 489.912L116.791 508.364Z" fill="#30335D"/>
<circle cx="79.8998" cy="504.06" r="2.51076" fill="#141334"/>
<circle cx="79.7528" cy="504.736" r="1.83456" fill="#666DA2"/>
<path d="M79.7528 505.929C79.6727 505.938 79.5918 505.938 79.5117 505.929C78.8363 505.929 78.2887 505.382 78.2887 504.706C78.2887 504.031 78.8363 503.483 79.5117 503.483C79.592 503.477 79.6726 503.477 79.7528 503.483C79.1874 503.603 78.7828 504.102 78.7828 504.68C78.7828 505.258 79.1874 505.757 79.7528 505.876V505.929Z" fill="#332D52"/>
<path d="M79.5 503.207C79.6041 503.183 79.7107 503.171 79.8175 503.172C80.6426 503.222 81.2857 503.906 81.2857 504.733C81.2857 505.559 80.6426 506.243 79.8175 506.294C79.711 506.293 79.6048 506.284 79.5 506.265C80.2199 506.109 80.7338 505.472 80.7338 504.736C80.7338 503.999 80.2199 503.362 79.5 503.207H79.5Z" fill="#9DA5D1"/>
<path d="M261.574 493.84L224.23 508.811L216.575 500.737L261.51 473.989L261.574 493.84Z" fill="#252849"/>
<circle cx="225.53" cy="502.054" r="2.51076" fill="#141334"/>
<circle cx="225.383" cy="502.731" r="1.83456" fill="#666DA2"/>
<path d="M225.383 503.93C225.303 503.936 225.222 503.936 225.142 503.93C224.466 503.93 223.919 503.383 223.919 502.707C223.919 502.032 224.466 501.484 225.142 501.484C225.222 501.475 225.303 501.475 225.383 501.484C224.817 501.604 224.413 502.103 224.413 502.681C224.413 503.259 224.817 503.758 225.383 503.877V503.93Z" fill="#332D52"/>
<path d="M225.101 501.202C225.206 501.193 225.312 501.193 225.418 501.202C226.243 501.253 226.886 501.936 226.886 502.763C226.886 503.59 226.243 504.273 225.418 504.324C225.311 504.325 225.205 504.313 225.101 504.289C225.82 504.133 226.334 503.497 226.334 502.76C226.334 502.024 225.82 501.387 225.101 501.231V501.202Z" fill="#9DA5D1"/>
<path d="M86.6324 217.568C86.6311 219.522 87.8014 221.285 89.6018 222.043C90.0324 222.206 90.5157 222.146 90.8933 221.883C91.2709 221.619 91.494 221.186 91.4893 220.726V214.411C91.4846 213.929 91.2353 213.482 90.8274 213.225C90.4196 212.969 89.9092 212.937 89.4725 213.141C87.7424 213.935 86.6332 215.664 86.6324 217.568Z" fill="#F9A0B4"/>
<path d="M213.5 231.049C214.856 229.008 217.609 228.452 219.65 229.807C221.691 231.163 222.247 233.916 220.892 235.957L213.25 247.463C211.895 249.504 209.141 250.06 207.1 248.704C205.059 247.349 204.503 244.595 205.859 242.554L213.5 231.049Z" fill="#FFB2BF"/>
<circle cx="212.247" cy="247.933" r="8.73768" fill="#FFB2BF"/>
<ellipse cx="114.886" cy="325.223" rx="5.37432" ry="6.74436" transform="rotate(-45 114.886 325.223)" fill="#F9E0E5"/>
<rect x="150.207" y="189.197" width="40.6367" height="16.2347" rx="8.11734" transform="rotate(-180 150.207 189.197)" fill="#FFC535"/>
<path d="M111.922 175.344H135.266C137.415 175.335 139.48 176.181 141.005 177.696C141.354 178.047 141.672 178.426 141.957 178.831C142.796 180.048 143.284 181.472 143.369 182.947C144.63 183.62 145.785 184.476 146.797 185.487C147.184 185.874 147.547 186.285 147.884 186.716C149.941 189.276 151.058 192.464 151.048 195.748C151.049 200.586 148.639 205.106 144.621 207.802C151.021 207.244 156.293 202.546 157.58 196.252C158.867 189.958 155.863 183.567 150.195 180.542C149.946 176.25 146.392 172.897 142.093 172.898H117.72C115.537 172.898 113.446 173.78 111.922 175.344H111.922Z" fill="#FCD277"/>
<circle cx="118.696" cy="216.116" r="2.54016" fill="#252849"/>
<circle cx="144.286" cy="216.116" r="2.54016" fill="#252849"/>
<circle cx="147.467" cy="216.116" r="12.9536" stroke="#252849" stroke-width="2.27"/>
<circle cx="116.909" cy="216.116" r="12.9536" stroke="#252849" stroke-width="2.27"/>
<path d="M134.525 216.622H129.85" stroke="#252849" stroke-width="2.27"/>
<rect x="98.9158" y="186.093" width="37.3204" height="14.5942" rx="7.29708" fill="#FCD277"/>
<circle cx="492.111" cy="259.945" r="20.3389" fill="#E1303E"/>
<path d="M428.56 279.796C428.783 280.558 429.06 281.303 429.389 282.025C432.946 289.915 441.78 293.969 450.081 291.521L494.181 278.515C500.18 276.815 504.803 272.024 506.287 265.968C507.772 259.913 505.888 253.526 501.356 249.245C496.823 244.964 490.34 243.448 484.379 245.275L440.279 258.276C431.101 260.983 425.854 270.618 428.56 279.796Z" fill="white"/>
<path d="M429.389 282.025C432.946 289.915 441.78 293.969 450.081 291.521L494.181 278.515C499.565 276.928 503.847 272.833 505.671 267.525C503.06 270.198 499.761 272.099 496.139 273.017L465.663 280.961L458.695 282.783C458.248 282.907 457.819 282.995 457.372 283.089C456.925 283.183 456.467 283.454 455.996 283.612C450.177 285.598 443.864 285.598 438.045 283.612C435.093 283.553 432.17 283.017 429.389 282.025Z" fill="#E9FFFE"/>
<path d="M391.568 246.832C388.749 251.793 382.442 253.529 377.482 250.71L367.968 245.303C363.007 242.484 361.271 236.177 364.09 231.216C366.91 226.256 373.216 224.52 378.177 227.339L387.691 232.746C392.651 235.565 394.387 241.871 391.568 246.832Z" fill="#F5B5A9"/>
<path d="M413.551 237.376C409.263 238.796 404.635 236.472 403.215 232.184L398.42 217.711C396.999 213.423 399.324 208.795 403.612 207.374C407.9 205.954 412.527 208.278 413.948 212.566L418.743 227.039C420.164 231.327 417.839 235.955 413.551 237.376Z" fill="#F5B5A9"/>
<path d="M403.141 235.311C399.196 242.252 390.371 244.681 383.43 240.736L373.492 235.088C366.551 231.144 364.121 222.319 368.066 215.378C372.011 208.436 380.836 206.007 387.777 209.952L397.715 215.6C404.656 219.545 407.085 228.37 403.141 235.311Z" fill="#F5B5A9"/>
<path d="M383.67 255.317C374.495 247.691 373.24 234.072 380.865 224.898C388.491 215.723 402.11 214.468 411.284 222.093L452.309 256.192C461.483 263.817 462.739 277.436 455.113 286.61C447.488 295.785 433.869 297.041 424.694 289.415L383.67 255.317Z" fill="#F5B5A9"/>
<path d="M391.568 246.832C388.749 251.793 382.442 253.529 377.482 250.71L367.968 245.303C363.007 242.484 361.271 236.177 364.09 231.216C366.91 226.256 373.216 224.52 378.177 227.339L387.691 232.746C392.651 235.565 394.387 241.871 391.568 246.832Z" fill="#F5B5A9"/>
<path d="M453.956 284.712C456.717 281.37 458.402 277.27 458.789 272.952C456.711 279.873 451.31 285.297 444.397 287.403C437.485 289.51 429.977 288.021 424.391 283.436L385.713 251.566L383.267 249.555C382.56 248.975 381.892 248.348 381.267 247.68C380.206 247.47 379.185 247.088 378.245 246.551L376.305 245.445L368.743 241.147C367.165 240.26 365.852 238.97 364.939 237.407C364.039 235.882 363.545 234.151 363.504 232.38C361.505 237.192 363.403 242.739 367.932 245.316L377.445 250.72C378.391 251.257 379.415 251.644 380.48 251.866C381.101 252.524 381.763 253.142 382.461 253.719L423.58 287.605C432.768 295.192 446.366 293.897 453.956 284.712Z" fill="#F8CDC5"/>
<path d="M489.088 237.909L490.311 211.289L513.131 212.337L511.908 238.957L489.088 237.909Z" fill="#F5B5A9"/>
<ellipse cx="477.088" cy="182.302" rx="14.0356" ry="6.99132" transform="rotate(-87.37 477.088 182.302)" fill="#F4AD18"/>
<path d="M513.174 212.388L512.809 220.349C508.142 225.791 501.801 229.53 494.781 230.981C493.015 231.347 491.221 231.562 489.418 231.621L490.353 211.335L513.174 212.388Z" fill="#F29495"/>
<path d="M526.656 183.27L525.175 197.382C523.299 215.167 507.363 228.066 489.577 226.194C484.432 225.652 479.714 223.087 476.463 219.063C473.211 215.039 471.693 209.888 472.243 204.744L474.348 184.752L474.701 181.371L474.836 180.124L475.218 176.438C475.667 172.158 477.799 168.232 481.144 165.524C484.489 162.817 488.773 161.55 493.052 162.002L496.545 162.373L510.969 163.884C512.841 164.077 514.67 164.571 516.384 165.348C523.325 168.473 527.479 175.699 526.686 183.27H526.656Z" fill="#F5B5A9"/>
<path d="M522.229 183.776C518.266 192.784 502.548 194.595 487.113 187.81C482.66 185.88 478.522 183.294 474.836 180.136L475.218 176.449C475.667 172.17 477.799 168.243 481.144 165.536C484.489 162.828 488.773 161.561 493.052 162.014L496.545 162.384L510.968 163.896C512.84 164.085 514.669 164.575 516.384 165.348C522.14 171.416 524.616 178.284 522.229 183.776Z" fill="#F29495"/>
<circle cx="500.678" cy="192.849" r="2.24028" fill="#252849"/>
<circle cx="484.85" cy="192.12" r="2.24028" fill="#252849"/>
<path d="M484.632 200.951C484.679 202.716 485.425 204.389 486.708 205.603C486.866 205.75 487.031 205.891 487.196 206.026C488.414 206.976 489.926 207.471 491.47 207.425H491.741C495.206 207.332 498.02 204.595 498.209 201.134C498.209 200.951 498.209 200.769 498.209 200.581C498.199 200.239 498.053 199.915 497.803 199.681C497.558 199.444 497.227 199.316 496.886 199.329L485.884 199.634C485.175 199.654 484.616 200.242 484.632 200.951Z" fill="#962F4A"/>
<path d="M491.553 206.396C491.562 206.741 491.606 207.083 491.682 207.419H491.717C495.183 207.327 497.997 204.589 498.185 201.128C496.571 200.708 494.853 201.074 493.55 202.116C492.247 203.157 491.511 204.752 491.564 206.42L491.553 206.396Z" fill="#E1617F"/>
<path d="M486.108 199.623C486.196 200.928 488.236 201.916 490.712 201.845C493.187 201.775 495.169 200.669 495.187 199.37L486.108 199.623Z" fill="white"/>
<path d="M515.443 178.646L529.088 179.273L527.845 206.322L526.67 206.268C523.362 206.117 520.248 204.657 518.017 202.21C515.785 199.762 514.618 196.527 514.773 193.219L515.443 178.646V178.646Z" fill="#FFC535"/>
<circle cx="522.699" cy="199.917" r="8.23788" fill="#F5B5A9"/>
<path d="M525.204 199.093C525.328 200.519 524.587 201.881 523.322 202.551C523.019 202.698 522.663 202.685 522.371 202.517C522.078 202.348 521.889 202.046 521.864 201.71L521.464 197.1C521.437 196.749 521.59 196.408 521.871 196.195C522.151 195.982 522.521 195.926 522.852 196.048C524.164 196.516 525.083 197.706 525.204 199.093Z" fill="#F29495"/>
<circle cx="522.634" cy="171.887" r="14.8646" fill="#FFC535"/>
<path d="M537.481 172.569C537.285 176.906 535.198 180.939 531.772 183.605C537.08 177.942 537.134 169.148 531.897 163.419C526.659 157.69 517.895 156.958 511.78 161.738C516.032 157.184 522.673 155.765 528.415 158.184C534.156 160.602 537.781 166.345 537.493 172.569H537.481Z" fill="#F4AD18"/>
<ellipse cx="496.888" cy="164.892" rx="18.6455" ry="32.5105" transform="rotate(-70.33 496.888 164.892)" fill="#FFC535"/>
<ellipse cx="496.888" cy="164.892" rx="11.4307" ry="19.9273" transform="rotate(-70.33 496.888 164.892)" fill="#FCD277"/>
<path d="M472.984 171.904C469.709 167.312 468.48 162.496 469.997 158.245C473.46 148.549 489.989 145.585 506.888 151.63C514.038 154.182 520.118 157.939 524.481 162.155C520.259 156.24 512.644 150.707 503.125 147.308C486.214 141.264 469.703 144.233 466.233 153.923C464.234 159.527 466.992 166.142 472.984 171.904Z" fill="#FCD277"/>
<path d="M518.829 346.287L454.652 343.339L457.989 270.68C458.884 251.216 475.387 236.162 494.851 237.056L507.28 237.627C516.396 238.046 523.446 245.775 523.027 254.891L518.829 346.287Z" fill="#F63E4A"/>
<path d="M524.615 238.999C524.41 243.466 520.622 246.921 516.155 246.716L481.934 245.144C477.467 244.939 474.012 241.151 474.217 236.684C474.423 232.217 478.21 228.762 482.677 228.967L516.898 230.539C521.365 230.744 524.82 234.532 524.615 238.999Z" fill="#F63E4A"/>
<path d="M417.67 508.211L417.247 521.37L390.407 520.507L390.83 507.349L417.67 508.211Z" fill="#F9A0B4"/>
<path d="M417.67 508.215L417.459 514.797L390.619 513.935L390.83 507.353L417.67 508.215Z" fill="#F492AC"/>
<path d="M405.764 523.716L379.38 525.151C379.06 520.397 381.323 515.838 385.303 513.217C389.283 510.597 394.365 510.321 398.606 512.495C402.847 514.668 405.59 518.955 405.787 523.716H405.764Z" fill="#30335D"/>
<path d="M376.675 528.373L376.634 524.322C376.614 522.566 377.964 521.098 379.715 520.97L414.407 518.436C415.554 518.352 416.685 518.746 417.529 519.526C418.374 520.307 418.858 521.402 418.864 522.552L418.941 530.061L376.675 528.373Z" fill="#FDBF48"/>
<path d="M418.929 527.797V530.231C418.938 530.976 418.651 531.694 418.13 532.227C417.61 532.76 416.898 533.064 416.154 533.071L378.604 533.465C377.387 533.48 376.215 533.009 375.345 532.157C374.476 531.306 373.981 530.143 373.97 528.926C373.944 526.392 375.976 524.316 378.51 524.287L389.023 524.175C390.068 524.164 391.074 524.569 391.821 525.3C392.568 526.031 392.993 527.029 393.004 528.073L418.929 527.797Z" fill="#30335D"/>
<path d="M422.233 506.547L420.428 360.835C420.411 356.02 418.48 351.409 415.061 348.018C411.642 344.628 407.015 342.736 402.2 342.759H401.724C396.909 342.777 392.298 344.707 388.908 348.127C385.517 351.546 383.625 356.172 383.649 360.987L385.454 506.7C385.464 508.225 386.704 509.455 388.229 509.452L419.464 509.334C420.202 509.336 420.91 509.042 421.43 508.518C421.95 507.995 422.24 507.285 422.233 506.547Z" fill="#252849"/>
<path d="M404.121 342.86L471.012 342.008C475.048 341.957 478.362 345.187 478.414 349.223L478.492 355.397C478.67 369.376 467.482 380.853 453.503 381.031L404.615 381.654C393.899 381.79 385.102 373.214 384.965 362.498C384.829 351.783 393.405 342.985 404.121 342.849L404.121 342.86Z" fill="#252849"/>
<path d="M519.453 354.866C519.565 361.726 516.927 368.345 512.127 373.247C508.058 377.424 502.606 379.975 496.792 380.421H496.527C496.116 380.421 495.704 380.462 495.287 380.468L448 381.056C442.991 381.124 438.17 379.147 434.652 375.582C432.208 373.113 430.467 370.038 429.607 366.673C429.245 365.222 429.048 363.735 429.019 362.24C428.719 351.409 437.398 342.43 447.882 342.301L519.3 341.389L519.453 354.866Z" fill="#30335D"/>
<path d="M343.851 510.431L333.154 523.687L312.045 506.654L322.742 493.397L343.851 510.431Z" fill="#FFB2BF"/>
<path d="M343.858 510.427L340.343 514.783L319.233 497.75L322.748 493.393L343.858 510.427Z" fill="#F9A0B4"/>
<path d="M323.22 518.954L301.352 504.077C305.469 498.061 313.677 496.51 319.705 500.611C325.732 504.711 327.304 512.915 323.22 518.954Z" fill="#30335D"/>
<path d="M297.272 505.018L299.694 501.772C300.742 500.364 302.705 500.014 304.175 500.973L333.31 520C334.27 520.628 334.927 521.624 335.128 522.753C335.328 523.882 335.053 525.043 334.369 525.963L329.876 531.978L297.272 505.018Z" fill="#FDBF48"/>
<path d="M331.217 530.184L329.77 532.125C328.843 533.376 327.077 533.639 325.825 532.713L295.731 510.263C294.756 509.535 294.111 508.449 293.936 507.245C293.762 506.041 294.073 504.817 294.802 503.842C295.528 502.865 296.614 502.217 297.818 502.042C299.023 501.866 300.248 502.178 301.223 502.907L309.649 509.193C310.488 509.817 311.044 510.749 311.195 511.784C311.346 512.818 311.08 513.87 310.455 514.708L331.217 530.184Z" fill="#30335D"/>
<path d="M461.283 372.124L460.695 372.842L454.103 381.021L420.393 422.769L349.233 511.092C347.836 512.808 345.315 513.071 343.594 511.68L321.25 493.629C319.531 492.233 319.268 489.709 320.662 487.99L372.706 423.357L420.028 364.715L432.717 348.998C436.151 344.728 441.315 342.219 446.794 342.16C447.466 342.151 448.137 342.18 448.805 342.248C455.531 342.903 461.355 347.198 463.969 353.43C466.583 359.662 465.565 366.826 461.318 372.083L461.283 372.124Z" fill="#30335D"/>
<circle cx="500.614" cy="265.967" r="20.3389" fill="#E1303E"/>
<path d="M482.186 329.947C482.944 330.181 483.719 330.36 484.503 330.482C493.047 331.856 501.294 326.715 503.824 318.44L517.254 274.463C519.111 268.528 517.644 262.053 513.412 257.496C509.179 252.94 502.829 251.001 496.773 252.416C490.717 253.831 485.884 258.383 484.109 264.344L470.673 308.314C467.882 317.467 473.035 327.15 482.186 329.947Z" fill="white"/>
<path d="M484.503 330.482C493.047 331.856 501.294 326.715 503.824 318.44L517.254 274.463C518.89 269.102 517.83 263.28 514.408 258.84C515.203 262.489 514.973 266.286 513.744 269.812L503.589 299.63L501.237 306.45C501.096 306.886 500.931 307.297 500.767 307.721C500.602 308.144 500.573 308.673 500.449 309.155C498.9 315.106 495.424 320.376 490.565 324.143C488.896 326.567 486.849 328.707 484.503 330.482H484.503Z" fill="#F9E8EA"/>
<circle cx="481.786" cy="316.252" r="24.7607" fill="#E1303E"/>
<path d="M430.365 315.931C430.139 321.632 425.334 326.071 419.632 325.845L408.698 325.412C402.997 325.186 398.559 320.381 398.785 314.679C399.011 308.978 403.816 304.54 409.517 304.766L420.451 305.199C426.152 305.425 430.591 310.23 430.365 315.931Z" fill="#F5B5A9"/>
<path d="M445.606 297.386C442.449 300.616 437.271 300.676 434.04 297.519L423.135 286.863C419.905 283.706 419.845 278.527 423.002 275.297C426.159 272.066 431.337 272.006 434.568 275.163L445.473 285.82C448.704 288.977 448.763 294.155 445.606 297.386Z" fill="#F5B5A9"/>
<path d="M435.36 300.382C435.044 308.36 428.32 314.571 420.343 314.254L408.921 313.802C400.944 313.485 394.733 306.762 395.049 298.784C395.365 290.807 402.089 284.596 410.066 284.912L421.488 285.365C429.466 285.681 435.676 292.405 435.36 300.382Z" fill="#F5B5A9"/>
<path d="M425.516 326.222C413.869 323.712 406.461 312.236 408.971 300.588C411.481 288.941 422.957 281.533 434.605 284.043L486.688 295.266C498.336 297.775 505.743 309.252 503.233 320.9C500.724 332.547 489.247 339.955 477.599 337.445L425.516 326.222Z" fill="#F5B5A9"/>
<path d="M430.365 315.931C430.139 321.632 425.334 326.071 419.632 325.845L408.698 325.412C402.997 325.186 398.559 320.381 398.785 314.679C399.011 308.978 403.816 304.54 409.517 304.766L420.451 305.199C426.152 305.425 430.591 310.23 430.365 315.931Z" fill="#F5B5A9"/>
<path d="M503.201 320.868C504.122 316.643 503.744 312.239 502.119 308.232C503.447 315.33 501.142 322.622 495.975 327.667C490.809 332.711 483.464 334.842 476.4 333.346L427.402 322.797L424.309 322.126C423.416 321.937 422.536 321.69 421.675 321.386C420.634 321.684 419.552 321.811 418.47 321.762L416.236 321.674L407.545 321.327C405.736 321.267 403.977 320.725 402.447 319.757C400.943 318.809 399.708 317.491 398.86 315.929C399.29 321.126 403.528 325.188 408.739 325.396L419.676 325.831C420.761 325.871 421.846 325.744 422.892 325.455C423.748 325.753 424.622 325.998 425.509 326.19L477.576 337.409C483.168 338.615 489.009 337.549 493.815 334.447C498.621 331.345 501.997 326.46 503.201 320.868Z" fill="#F8CDC5"/>
</svg>
