<svg width="600" height="600" viewBox="0 0 600 600" fill="none" xmlns="http://www.w3.org/2000/svg">
<rect width="600" height="600" rx="6" fill="white"/>
<path d="M577.618 394.78V400.901C577.609 428.162 563.354 453.436 540.027 467.545C537.776 468.91 535.454 470.157 533.071 471.279C532.66 471.478 532.242 471.673 531.825 471.867C528.958 473.168 526.012 474.29 523.005 475.224L522.188 475.471C514.912 477.652 507.357 478.758 499.761 478.752H468.168C459.298 478.755 452.11 485.946 452.11 494.816V554.739H183.576V494.816C183.584 488.203 179.53 482.265 173.368 479.863C172.916 479.687 172.457 479.528 171.987 479.387C171.407 479.221 170.818 479.087 170.223 478.987C169.328 478.828 168.421 478.75 167.512 478.752H114.368C113.528 478.752 112.698 478.752 111.864 478.717C105.476 478.525 99.1344 477.576 92.9711 475.888C92.3066 475.706 91.6422 475.518 90.9836 475.3C86.859 474.059 82.8416 472.486 78.9708 470.596C72.9826 467.686 67.3775 464.046 62.2834 459.76C60.5076 458.266 58.8004 456.698 57.1619 455.056C37.0537 434.928 28.9879 405.722 35.9169 378.128C42.8459 350.534 63.7523 328.603 90.9836 320.362C91.6422 320.163 92.3066 319.974 92.9711 319.774C99.9432 317.867 107.14 316.903 114.368 316.911H176.726C178.166 316.911 179.602 316.764 181.012 316.47L181.183 316.435C185.128 315.583 188.744 313.611 191.596 310.755C192.172 310.179 192.712 309.568 193.213 308.926V308.896C193.805 308.151 194.343 307.365 194.824 306.544V306.515C198.636 300.014 198.675 291.97 194.928 285.432C191.181 278.893 184.221 274.861 176.685 274.863H71.5444C51.6664 274.859 33.7475 262.883 26.1403 244.518C18.5332 226.153 22.7352 205.015 36.7877 190.955L37.1522 190.597L37.3051 190.45C46.4707 181.532 58.7564 176.547 71.5444 176.555C81.6576 176.564 91.4115 172.805 98.904 166.012C99.5332 165.424 100.139 164.836 100.733 164.248C107.519 157.31 111.594 148.168 112.216 138.482C112.275 137.6 112.305 136.718 112.305 135.813C112.305 104.014 138.083 78.2358 169.881 78.2358H502.689C524.397 78.2342 543.537 92.4678 549.782 113.257C551.149 117.847 551.847 122.61 551.852 127.399C551.852 129.104 551.764 130.785 551.599 132.444C551.39 134.475 551.057 136.492 550.6 138.482C545.432 160.774 525.572 176.556 502.689 176.555H462.705C459.21 176.549 455.743 177.189 452.48 178.443C451.29 178.896 450.133 179.43 449.017 180.042C444.501 182.521 440.732 186.166 438.104 190.597C437.751 191.185 437.416 191.814 437.104 192.443C435.153 196.386 434.147 200.728 434.164 205.126V205.297C434.164 206.179 434.217 207.061 434.299 207.907C434.642 211.419 435.639 214.835 437.239 217.98C437.469 218.433 437.71 218.88 437.962 219.315C443.055 228.207 452.517 233.693 462.764 233.697C463.246 233.697 463.717 233.697 464.193 233.727H464.322C469.676 233.94 474.917 235.321 479.681 237.772C487.502 241.796 493.642 248.463 497.009 256.588C497.009 256.653 497.062 256.711 497.086 256.776C498.139 259.351 498.893 262.038 499.332 264.785C499.654 266.758 499.815 268.754 499.814 270.753V296.037C499.813 296.994 499.868 297.95 499.979 298.9C501.12 309.191 508.293 317.806 518.207 320.792L518.366 320.839C522.977 322.219 527.494 323.897 531.89 325.86L533.136 326.448C535.441 327.518 537.77 328.706 540.092 330.023C546.806 333.767 552.945 338.459 558.32 343.953C560.807 346.513 563.088 349.266 565.141 352.185C565.635 352.885 566.111 353.596 566.581 354.319C569.917 359.497 572.515 365.113 574.302 371.007C576.584 378.722 577.702 386.735 577.618 394.78Z" fill="#FFFAF4"/>
<path d="M380.027 343.947H363.01L358.065 288.775C358.002 288.077 358.236 287.384 358.709 286.866C359.182 286.348 359.851 286.053 360.552 286.053H372.559C373.852 286.054 374.931 287.04 375.046 288.328L380.027 343.947Z" fill="#F9E7D9"/>
<circle cx="368.925" cy="313.894" r="5.18616" fill="#EFD6C5"/>
<path d="M344.035 286.053H354.855C356.566 286.053 357.953 287.44 357.953 289.151V343.947H340.937V289.151C340.937 287.44 342.324 286.053 344.035 286.053Z" fill="#F9E7D9"/>
<circle cx="349.445" cy="313.894" r="5.18616" fill="#EFD6C5"/>
<path d="M476.307 326.93C479.317 326.93 481.757 329.37 481.757 332.38V338.497C481.757 341.507 479.317 343.947 476.307 343.947H429.318C426.308 343.947 423.868 341.507 423.868 338.497V332.38C423.868 329.37 426.308 326.93 429.318 326.93H476.307Z" fill="#F9E7D9"/>
<circle cx="453.915" cy="335.439" r="5.18616" fill="#EFD6C5"/>
<path d="M483.574 309.908C486.584 309.908 489.024 312.348 489.024 315.358V321.475C489.024 324.485 486.584 326.925 483.574 326.925H436.586C433.576 326.925 431.136 324.485 431.136 321.475V315.358C431.136 312.348 433.576 309.908 436.586 309.908H483.574Z" fill="#F9E7D9"/>
<circle cx="461.188" cy="318.422" r="5.18616" fill="#EFD6C5"/>
<rect x="384.76" y="386.677" width="30.5466" height="23.7905" rx="5.5" fill="#F9E7D9"/>
<ellipse cx="400.036" cy="398.572" rx="6.174" ry="6.174" fill="#E8D1C1"/>
<circle cx="396.949" cy="398.572" r="0.62916" fill="#D3AA94"/>
<circle cx="403.441" cy="398.572" r="0.62916" fill="#D3AA94"/>
<path d="M565.094 352.209H332.005V343.977H558.273C560.76 346.537 563.041 349.289 565.094 352.209Z" fill="#F9E7D9"/>
<path d="M445.036 227.582H332.005V219.35H437.904C439.733 222.525 442.154 225.32 445.036 227.582Z" fill="#F9E7D9"/>
<path d="M327.542 160.644C330.007 160.644 332.005 162.642 332.005 165.107V554.739H323.079V165.083C323.092 162.628 325.086 160.644 327.542 160.644V160.644Z" fill="#F9E7D9"/>
<rect x="377.298" y="115.35" width="32.7457" height="13.771" rx="2.7" fill="#F2E1D3"/>
<rect x="354.843" y="134.378" width="32.7457" height="13.771" rx="2.7" fill="#F9EEE4"/>
<rect x="313.924" y="134.378" width="32.7457" height="13.771" rx="2.7" fill="#F9EEE4"/>
<rect x="398.796" y="134.378" width="32.7457" height="13.771" rx="2.7" fill="#F9E7D9"/>
<rect x="336.062" y="153.735" width="32.7457" height="13.771" rx="2.7" fill="#F9E7D9"/>
<rect x="141.305" y="381.391" width="32.7457" height="13.771" rx="2.7" fill="#F2E1D3"/>
<rect x="118.849" y="400.413" width="32.7457" height="13.771" rx="2.7" fill="#F9EEE4"/>
<rect x="77.93" y="400.413" width="32.7457" height="13.771" rx="2.7" fill="#F9EEE4"/>
<rect x="162.796" y="400.413" width="32.7457" height="13.771" rx="2.7" fill="#F9E7D9"/>
<rect x="100.068" y="419.776" width="32.7457" height="13.771" rx="2.7" fill="#F9E7D9"/>
<rect x="75.2664" y="197.194" width="29.5823" height="12.4421" rx="2.44" fill="#F2E1D3"/>
<rect x="54.9804" y="214.381" width="29.5823" height="12.4421" rx="2.44" fill="#F9EEE4"/>
<rect x="94.688" y="214.381" width="29.5823" height="12.4421" rx="2.44" fill="#F9E7D9"/>
<rect x="461.941" y="407.751" width="29.5823" height="12.4421" rx="2.44" fill="#F2E1D3"/>
<rect x="441.655" y="424.944" width="29.5823" height="12.4421" rx="2.44" fill="#F9EEE4"/>
<rect x="481.363" y="424.944" width="29.5823" height="12.4421" rx="2.44" fill="#F9E7D9"/>
<rect x="92.5654" y="565.094" width="43.5473" height="10.3547" rx="5.17734" transform="rotate(-180 92.5654 565.094)" fill="#A66633"/>
<rect x="573.026" y="565.094" width="476.245" height="10.3547" rx="5.17734" transform="rotate(-180 573.026 565.094)" fill="#A66633"/>
<path d="M298.856 218.605C305.688 226.669 304.689 238.744 296.625 245.576C288.561 252.407 276.485 251.408 269.654 243.344L232.247 199.188C225.415 191.124 226.414 179.049 234.478 172.217C242.542 165.386 254.618 166.385 261.449 174.449L298.856 218.605Z" fill="#DEE4EB"/>
<path d="M375.04 206.966C377.657 206.504 380.153 208.253 380.614 210.87C381.076 213.488 379.327 215.984 376.71 216.445L361.931 219.048C359.314 219.509 356.818 217.761 356.357 215.143C355.896 212.526 357.644 210.03 360.262 209.569L375.04 206.966Z" fill="#EF927F"/>
<path d="M376.728 216.451L361.958 219.056C361.68 219.106 361.399 219.129 361.117 219.126C360.251 219.127 359.401 218.891 358.659 218.444C358.854 218.473 359.05 218.486 359.247 218.486C359.527 218.486 359.807 218.461 360.082 218.409L374.858 215.804C377.475 215.341 379.222 212.847 378.763 210.23C378.524 208.852 377.692 207.648 376.487 206.937C378.854 207.229 380.651 209.211 380.708 211.595C380.766 213.98 379.067 216.046 376.716 216.451H376.728Z" fill="#EF927F"/>
<circle cx="287.705" cy="229.317" r="21.6502" fill="#004393"/>
<path d="M339.446 194.205C348.168 191.067 357.783 195.594 360.921 204.316C364.06 213.038 359.533 222.653 350.811 225.792L295.229 245.792C286.507 248.93 276.892 244.403 273.753 235.681C270.615 226.959 275.141 217.344 283.864 214.205L339.446 194.205Z" fill="#F0A284"/>
<ellipse cx="351.137" cy="208.321" rx="21.3973" ry="17.3225" transform="rotate(-8.44 351.137 208.321)" fill="#F0A284"/>
<path d="M339.446 194.205C348.168 191.067 357.783 195.594 360.921 204.316C364.06 213.038 359.533 222.653 350.811 225.792L295.229 245.792C286.507 248.93 276.892 244.403 273.753 235.681C270.615 226.959 275.141 217.344 283.864 214.205L339.446 194.205Z" fill="#E28F79"/>
<ellipse cx="351.137" cy="208.321" rx="21.3973" ry="17.3225" transform="rotate(-8.44 351.137 208.321)" fill="#F0A284"/>
<path d="M372.324 205.197C372.073 203.547 371.534 201.955 370.73 200.493C369.701 205.132 366.438 209.313 361.793 212.159C358.886 213.912 355.657 215.066 352.297 215.551C351.4 215.683 350.497 215.77 349.592 215.81L335.439 220.908L293.844 235.873C285.717 238.804 276.694 235.076 273.005 227.264C272.526 230.096 272.789 233.003 273.769 235.702C275.273 239.893 278.381 243.315 282.409 245.212C286.437 247.109 291.055 247.326 295.243 245.816L350.827 225.824C350.875 225.81 350.922 225.792 350.968 225.771C351.883 225.729 352.796 225.64 353.702 225.506C365.362 223.736 373.706 214.652 372.324 205.197Z" fill="#EF927F"/>
<path d="M375.941 196.726C378.515 196.061 381.14 197.608 381.805 200.182C382.47 202.755 380.923 205.38 378.35 206.046L363.821 209.8C361.248 210.465 358.622 208.918 357.957 206.345C357.292 203.771 358.839 201.146 361.413 200.481L375.941 196.726Z" fill="#F0A284"/>
<path d="M368.093 189.294C370.711 188.833 373.207 190.581 373.668 193.199C374.129 195.816 372.38 198.312 369.763 198.773L354.984 201.377C352.367 201.838 349.871 200.089 349.41 197.472C348.949 194.854 350.697 192.358 353.315 191.897L368.093 189.294Z" fill="#F0A284"/>
<path d="M347.31 185.988C349.392 184.336 352.42 184.684 354.072 186.766C355.724 188.848 355.376 191.875 353.294 193.528L341.541 202.857C339.459 204.509 336.432 204.161 334.779 202.079C333.127 199.997 333.475 196.97 335.557 195.317L347.31 185.988Z" fill="#F0A284"/>
<circle cx="338.432" cy="204.909" r="9.92544" fill="#F0A284"/>
<path d="M223.331 96.0405H236.267C239.806 96.0405 242.676 98.91 242.676 102.45V107.354C242.676 116.616 235.174 124.128 225.912 124.141C224.496 124.141 223.348 122.993 223.348 121.577V96.0405H223.331Z" fill="#004393"/>
<rect x="196.882" y="325.096" width="123.856" height="14.4178" rx="7.20888" fill="#9A463B"/>
<path d="M248.985 328.918L244.04 343.03L235.332 367.885L192.866 488.36L169.529 554.563H151.477L168.112 488.36L198.382 367.885L205.062 343.03L208.854 328.918H248.985Z" fill="#9A463B"/>
<path d="M312.813 328.918L312.007 343.03L310.59 367.885L302.093 488.36L297.419 554.563H279.367L277.338 488.36L273.64 367.885L273.023 343.03L272.676 328.918H312.813Z" fill="#9A463B"/>
<path d="M237.584 239.983H294.232C295.602 239.983 296.713 241.094 296.713 242.464C296.713 247.26 294.808 251.859 291.417 255.249C288.026 258.64 283.427 260.545 278.632 260.545H219.503V258.064C219.503 248.078 227.598 239.983 237.584 239.983V239.983Z" fill="#9A463B"/>
<rect x="245.181" y="246.174" width="20.0214" height="93.345" rx="10.0107" fill="#9A463B"/>
<path d="M192.649 191.732H230.616C245.798 191.732 258.105 204.039 258.105 219.221V298.465C258.105 313.647 245.798 325.954 230.616 325.954H165.16V219.226C165.158 211.935 168.054 204.941 173.209 199.785C178.364 194.629 185.357 191.732 192.649 191.732V191.732Z" fill="#9A463B"/>
<path d="M168.112 488.36H192.866L169.529 554.563H151.477L168.112 488.36Z" fill="#6F232D"/>
<path d="M302.093 488.36L297.419 554.563H279.367L277.338 488.36H302.093Z" fill="#6F232D"/>
<path d="M309.056 444.721L309.933 466.277L275.617 467.673L274.74 446.117L309.056 444.721Z" fill="#F0A284"/>
<path d="M309.062 444.721L309.35 451.806L275.034 453.202L274.745 446.117L309.062 444.721Z" fill="#EF927F"/>
<path d="M289.269 470.426L322.732 471.796C323.025 462.611 315.861 454.906 306.679 454.53C297.497 454.154 289.728 461.248 289.269 470.426H289.269Z" fill="white"/>
<path d="M326.172 475.812V470.685C326.167 468.462 324.434 466.626 322.215 466.492L278.244 463.881C276.795 463.794 275.375 464.31 274.32 465.306C273.265 466.303 272.67 467.693 272.676 469.144V478.646L326.172 475.812Z" fill="#004393"/>
<path d="M272.67 475.812V480.516C272.67 481.024 272.872 481.511 273.232 481.869C273.591 482.228 274.079 482.429 274.587 482.427L323.773 482.298C325.315 482.295 326.792 481.679 327.879 480.586C328.967 479.493 329.575 478.012 329.571 476.471C329.567 474.929 328.952 473.451 327.859 472.364C326.766 471.277 325.285 470.668 323.743 470.673L310.431 470.708C309.109 470.711 307.842 471.24 306.909 472.177C305.976 473.114 305.453 474.384 305.457 475.706L272.67 475.812Z" fill="#108FD4"/>
<path d="M222.912 412.243L232.434 398.553L260.345 417.966L250.823 431.656L222.912 412.243Z" fill="#EF927F"/>
<path d="M232.792 423.321L258.534 444.742C262.459 440.154 263.611 433.809 261.548 428.135C259.486 422.461 254.529 418.336 248.574 417.339C242.62 416.342 236.589 418.628 232.792 423.321H232.792Z" fill="#EFDADC"/>
<path d="M258.84 450.04L261.951 445.953C263.298 444.187 263.041 441.677 261.363 440.22L228.029 411.408C226.93 410.452 225.483 409.994 224.034 410.145C222.585 410.295 221.264 411.04 220.385 412.202L214.634 419.764L258.84 450.04Z" fill="#004393"/>
<path d="M216.333 417.512L213.393 421.381C213.107 421.754 212.982 422.225 213.044 422.691C213.107 423.157 213.354 423.579 213.729 423.862L252.96 453.739C255.515 455.68 259.159 455.185 261.104 452.633C262.04 451.409 262.451 449.863 262.247 448.336C262.043 446.809 261.24 445.425 260.016 444.489L249.432 436.416C247.24 434.751 244.113 435.177 242.447 437.369L216.333 417.512Z" fill="#013568"/>
<path d="M335.145 282.789C340.192 286.299 343.638 291.67 344.726 297.72C345.813 303.771 344.452 310.006 340.942 315.053L265.678 423.245L227.617 396.785L302.881 288.593C306.388 283.542 311.758 280.092 317.81 279.004C323.862 277.915 330.098 279.277 335.145 282.789Z" fill="#004393"/>
<path d="M320.821 325.096H258.916C250.415 325.097 242.262 321.721 236.251 315.71C230.239 309.699 226.863 301.545 226.865 293.044V285.224C226.865 282.771 227.839 280.418 229.574 278.683C231.308 276.949 233.661 275.974 236.114 275.974H320.821C334.387 275.974 345.384 286.97 345.388 300.535C345.384 314.101 334.387 325.096 320.821 325.096Z" fill="#004393"/>
<path d="M250.964 265.2C250.983 280.702 238.431 293.285 222.928 293.304L204.375 293.327C188.872 293.346 176.289 280.794 176.271 265.291L176.192 200.768C176.173 185.265 188.725 172.682 204.227 172.663L222.781 172.641C238.284 172.622 250.866 185.174 250.885 200.676L250.964 265.2Z" fill="white"/>
<path d="M225.427 229.35L206.358 229.373C184.743 229.399 167.2 211.898 167.173 190.284L167.168 186.45C167.156 173.241 177.844 162.518 191.053 162.489L240.545 162.429C253.765 162.412 264.496 173.116 264.512 186.337L264.516 190.17C264.543 211.785 247.042 229.329 225.427 229.356L225.427 229.35Z" fill="white"/>
<path d="M222.743 160.309V162.443L196.706 162.473L196.688 149.401L196.683 137.012L222.713 136.983L222.743 160.309Z" fill="#F0A284"/>
<path d="M176.255 293.044C176.26 309.978 189.436 323.988 206.337 325.031H206.684C207.219 325.031 207.76 325.072 208.307 325.072H270.218C283.638 325.09 294.58 314.318 294.773 300.9C294.984 287.176 283.477 275.951 269.753 275.951H176.261L176.255 293.044Z" fill="#108FD4"/>
<path d="M248.344 302.411L248.503 303.587L250.308 316.764L259.546 384.084L268.771 451.298L314.882 444.971L310.902 415.954L297.93 321.427L294.449 296.084C293.516 289.211 289.558 283.116 283.659 279.467C282.939 279.019 282.193 278.612 281.425 278.25C273.704 274.561 264.582 275.408 257.672 280.455C250.762 285.501 247.18 293.934 248.344 302.411Z" fill="#108FD4"/>
<path d="M222.743 160.309C222.155 160.356 221.537 160.374 220.926 160.362C211.676 160.228 202.898 156.258 196.688 149.401V137.012L222.719 136.983L222.743 160.309Z" fill="#EF927F"/>
<path d="M238.313 104.331L238.231 109.453L237.843 133.731C237.659 144.837 228.516 153.696 217.41 153.529C198.935 153.239 184.193 138.029 184.482 119.555L184.717 104.931C184.891 94.8843 193.162 86.8732 203.209 87.0206L221.808 87.3146C226.254 87.3795 230.492 89.2096 233.588 92.4015C236.684 95.5934 238.384 99.8852 238.313 104.331Z" fill="#F0A284"/>
<path d="M238.313 104.331L238.231 109.453C232.374 111.601 226.176 112.671 219.938 112.61C202.298 112.61 187.98 104.749 187.863 95.0173C191.303 89.9258 197.083 86.9174 203.227 87.0205L221.825 87.3145C226.269 87.3841 230.502 89.2162 233.594 92.4076C236.686 95.599 238.384 99.8881 238.313 104.331Z" fill="#EF927F"/>
<path d="M192.943 256.188V329.506C192.943 335.036 188.46 339.519 182.929 339.519C177.399 339.519 172.916 335.036 172.916 329.506V256.188C172.912 254.929 173.152 253.681 173.621 252.513C175.119 248.678 178.815 246.154 182.932 246.154C187.049 246.154 190.745 248.678 192.243 252.513C192.708 253.682 192.945 254.93 192.943 256.188Z" fill="#DB8D5C"/>
<path d="M209.748 328.918L206.032 339.519L204.803 343.03L199.07 359.394L196.095 367.885L153.629 488.36L130.291 554.563H112.24L128.88 488.36L159.15 367.885L161.432 359.394L165.824 343.03L166.771 339.519L169.617 328.918H209.748Z" fill="#DB8D5C"/>
<path d="M273.581 328.918L272.976 339.519L272.776 343.03L271.835 359.394L271.359 367.885L262.856 488.36L258.181 554.563H240.13L238.107 488.36L234.414 367.885L234.197 359.394L233.797 343.03L233.703 339.519L233.444 328.918H273.581Z" fill="#DB8D5C"/>
<rect x="157.645" y="319.375" width="123.856" height="20.139" rx="10.0695" fill="#DB8D5C"/>
<rect x="173.945" y="323.561" width="91.2635" height="11.7718" rx="5.88588" fill="#F1A873"/>
<path d="M166.771 339.52H206.032L204.803 343.03L199.07 359.394H161.432L166.771 339.52Z" fill="#CB7748"/>
<path d="M272.976 339.52L272.776 343.03L271.835 359.394H234.197L233.797 343.03L233.703 339.52H272.976Z" fill="#CB7748"/>
<path d="M192.943 256.188V273.07H172.916V256.188C172.912 254.929 173.152 253.681 173.621 252.513H192.243C192.708 253.682 192.945 254.93 192.943 256.188Z" fill="#CB7748"/>
<path d="M153.629 488.36L130.291 554.563H112.24L128.88 488.36H153.629Z" fill="#CB7748"/>
<path d="M262.856 488.36L258.181 554.563H240.13L238.107 488.36H262.856Z" fill="#CB7748"/>
<path d="M165.348 239.983H221.996C223.366 239.983 224.477 241.094 224.477 242.464C224.477 252.45 216.382 260.545 206.396 260.545H147.238V258.064C147.238 253.263 149.147 248.66 152.544 245.268C155.941 241.877 160.548 239.975 165.348 239.983Z" fill="#DB8D5C"/>
<path d="M224.448 239.983V242.464C224.449 247.259 222.546 251.858 219.156 255.249C215.766 258.64 211.168 260.545 206.373 260.545H178.149C188.135 260.545 196.23 252.45 196.23 242.464V239.983H224.448Z" fill="#E9A06D"/>
<path d="M343.73 346.387H427.149V368.972H343.73V346.387Z" fill="#CB7748"/>
<path d="M448.705 555.574H440.403L433.135 488.36L407.087 247.292L405.605 233.562H424.056L425.109 247.292L443.56 488.36L448.705 555.574Z" fill="#DB8D5C"/>
<path d="M364.48 233.562L362.834 247.292L333.928 488.36L325.866 555.574H316.658L322.368 488.36L342.836 247.292L344.006 233.562L364.48 233.562Z" fill="#DB8D5C"/>
<path d="M344.006 233.562H364.48L362.834 247.292H342.836L344.006 233.562Z" fill="#CB7748"/>
<path d="M425.109 247.292H407.087L405.605 233.562H424.056L425.109 247.292Z" fill="#CB7748"/>
<rect x="330.129" y="226.712" width="110.168" height="14.6177" rx="7.30884" fill="#DB8D5C"/>
<path d="M322.368 488.36H333.928L325.866 555.574H316.658L322.368 488.36Z" fill="#CB7748"/>
<path d="M448.705 555.574H440.403L433.135 488.36H443.56L448.705 555.574Z" fill="#CB7748"/>
<path d="M434.387 448.176C433.599 448.176 432.912 447.282 432.788 446.03L419.487 307.262C419.352 305.88 419.964 304.598 420.846 304.392C421.728 304.187 422.551 305.139 422.68 306.515L435.987 445.283C436.116 446.659 435.51 447.941 434.628 448.147C434.55 448.168 434.469 448.178 434.387 448.176Z" fill="#F1A873"/>
<path d="M333.128 448.176C333.916 448.176 334.604 447.282 334.727 446.03L348.028 307.262C348.163 305.88 347.552 304.598 346.67 304.392C345.788 304.187 344.964 305.139 344.835 306.515L331.529 445.283C331.399 446.659 332.005 447.941 332.887 448.147C332.965 448.168 333.047 448.178 333.128 448.176Z" fill="#F1A873"/>
<path d="M362.563 219.121H365.039C366.338 219.121 367.391 220.174 367.391 221.473V222.849H360.194V221.473C360.194 220.846 360.444 220.245 360.889 219.803C361.334 219.362 361.936 219.116 362.563 219.121Z" fill="#DEE4EB"/>
<path d="M355.354 219.121H357.83C359.129 219.121 360.182 220.174 360.182 221.473V222.849H352.991V221.473C352.991 220.847 353.24 220.247 353.684 219.805C354.127 219.364 354.729 219.118 355.354 219.121Z" fill="#DEE4EB"/>
<path d="M348.151 219.121H350.627C351.926 219.121 352.979 220.174 352.979 221.473V222.849H345.782V221.473C345.782 220.846 346.032 220.245 346.477 219.803C346.922 219.362 347.525 219.116 348.151 219.121Z" fill="#DEE4EB"/>
<path d="M340.942 219.121H343.418C344.717 219.121 345.77 220.174 345.77 221.473V222.849H338.573V221.473C338.573 220.846 338.823 220.245 339.268 219.803C339.713 219.362 340.316 219.116 340.942 219.121Z" fill="#DEE4EB"/>
<path d="M333.734 219.121H336.209C337.508 219.121 338.561 220.174 338.561 221.473V222.849H331.37V221.473C331.37 220.847 331.619 220.247 332.063 219.805C332.506 219.364 333.108 219.118 333.734 219.121Z" fill="#DEE4EB"/>
<path d="M326.531 219.121H329.006C330.305 219.121 331.358 220.174 331.358 221.473V222.849H324.161V221.473C324.161 220.846 324.411 220.245 324.856 219.803C325.301 219.362 325.904 219.116 326.531 219.121Z" fill="#DEE4EB"/>
<path d="M319.322 219.121H321.797C323.096 219.121 324.149 220.174 324.149 221.473V222.849H316.952V221.473C316.952 220.846 317.202 220.245 317.647 219.803C318.092 219.362 318.695 219.116 319.322 219.121Z" fill="#DEE4EB"/>
<rect x="295.614" y="219.679" width="98.4606" height="7.0266" rx="3.5133" fill="#004393"/>
<path d="M366.95 226.712H449.105C452.555 226.719 455.566 224.377 456.408 221.032L472.419 157.41C472.985 155.163 472.482 152.781 471.058 150.954C469.633 149.127 467.445 148.06 465.128 148.061H392.604C389.161 148.06 386.157 150.401 385.319 153.741L366.95 226.712Z" fill="#108FD4"/>
<path d="M472.407 157.416L456.408 221.032C455.567 224.372 452.562 226.713 449.117 226.712H366.956L368.72 219.656H433.629C437.075 219.656 440.081 217.316 440.926 213.976L456.931 150.36C457.126 149.592 457.197 148.798 457.143 148.008H465.116C467.446 148.004 469.645 149.08 471.072 150.922C472.499 152.763 472.992 155.161 472.407 157.416Z" fill="#004393"/>
<circle cx="424.821" cy="189.491" r="4.11012" fill="#DEE4EB"/>
<path d="M430.33 195.648C428.551 198.42 425.263 199.829 422.028 199.206C418.793 198.583 416.264 196.054 415.641 192.819C415.018 189.584 416.427 186.296 419.199 184.517C417.168 187.705 417.624 191.877 420.297 194.55C422.97 197.223 427.142 197.679 430.33 195.648Z" fill="#DEE4EB"/>
<path d="M179.519 96.0405H198.864V107.359C198.864 116.631 191.348 124.147 182.077 124.147C181.397 124.147 180.745 123.877 180.264 123.396C179.783 122.915 179.513 122.263 179.513 121.583V96.0405H179.519Z" fill="#004393"/>
<ellipse cx="209.713" cy="91.4188" rx="32.0872" ry="17.7164" fill="#004393"/>
<path d="M237.084 91.4188C237.084 98.6629 226.453 104.531 213.341 104.531C212.241 104.531 211.153 104.49 210.089 104.408C221.655 103.532 230.575 98.0514 230.575 91.4188C230.575 84.7861 221.655 79.306 210.089 78.4299C211.153 78.3534 212.241 78.3123 213.341 78.3123C226.424 78.324 237.084 84.204 237.084 91.4188Z" fill="#108FD4"/>
<ellipse cx="196.688" cy="88.3083" rx="15.241" ry="8.41428" fill="#108FD4"/>
<circle cx="185.875" cy="118.602" r="8.50836" fill="#F0A284"/>
<path d="M220.495 227.452C225.38 236.824 221.742 248.382 212.37 253.267C202.998 258.152 191.44 254.514 186.555 245.142L159.807 193.824C154.922 184.452 158.559 172.894 167.931 168.009C177.303 163.124 188.861 166.762 193.746 176.134L220.495 227.452Z" fill="#DEE4EB"/>
<path d="M206.508 255.2C198.393 256.463 190.376 252.414 186.575 245.134L159.833 193.819C156.495 187.419 157.043 179.686 161.249 173.821C165.456 167.956 172.604 164.957 179.736 166.065C177.683 166.384 175.696 167.04 173.856 168.006C169.354 170.35 165.968 174.387 164.444 179.228C162.92 184.07 163.383 189.319 165.73 193.819L192.478 245.134C195.282 250.534 200.494 254.274 206.508 255.2Z" fill="white"/>
<circle cx="203.639" cy="235.361" r="21.6502" fill="#004393"/>
<path d="M257.683 210.319C266.772 208.495 275.618 214.384 277.443 223.472C279.267 232.561 273.378 241.407 264.29 243.232L206.374 254.857C197.286 256.681 188.439 250.792 186.615 241.704C184.791 232.615 190.679 223.769 199.768 221.945L257.683 210.319Z" fill="#F0A284"/>
<ellipse cx="267.178" cy="226.012" rx="21.3973" ry="17.3225" fill="#F0A284"/>
<path d="M288.569 225.765C287.329 233.409 279.902 239.495 270.494 240.606C269.454 240.731 268.408 240.794 267.36 240.794C266.453 240.795 265.546 240.748 264.644 240.653L264.473 240.694L258.593 241.87L206.567 252.313C197.478 254.13 188.636 248.241 186.81 239.154C186.597 238.093 186.486 237.014 186.481 235.932C185.773 240.756 187.195 245.651 190.378 249.345C193.561 253.039 198.192 255.169 203.068 255.183C204.184 255.181 205.297 255.068 206.39 254.847L264.308 243.223L264.473 243.187C265.377 243.28 266.286 243.325 267.195 243.323C279.014 243.323 288.593 235.573 288.593 226.006C288.575 225.912 288.575 225.853 288.569 225.765V225.765Z" fill="#FCB798"/>
<path d="M286.745 228.278C289.402 228.207 291.614 230.302 291.686 232.959C291.758 235.616 289.662 237.829 287.005 237.901L272.005 238.306C269.348 238.378 267.136 236.283 267.064 233.626C266.992 230.969 269.088 228.756 271.745 228.684L286.745 228.278Z" fill="#F0A284"/>
<path d="M294.815 219.071C297.473 218.999 299.685 221.095 299.757 223.752C299.829 226.409 297.733 228.621 295.076 228.693L280.076 229.099C277.418 229.171 275.206 227.075 275.134 224.418C275.062 221.761 277.158 219.549 279.815 219.477L294.815 219.071Z" fill="#F0A284"/>
<path d="M286.744 209.665C289.401 209.593 291.613 211.688 291.685 214.345C291.757 217.002 289.661 219.215 287.004 219.287L272.004 219.692C269.347 219.764 267.135 217.669 267.063 215.012C266.991 212.355 269.087 210.142 271.744 210.07L286.744 209.665Z" fill="#F0A284"/>
<path d="M266.67 203.355C268.972 202.026 271.916 202.814 273.245 205.116C274.574 207.418 273.785 210.362 271.483 211.691L258.488 219.194C256.186 220.523 253.242 219.734 251.913 217.432C250.584 215.13 251.373 212.187 253.675 210.858L266.67 203.355Z" fill="#F0A284"/>
<path d="M237.11 229.922C239.848 229.372 242.513 231.147 243.063 233.885C243.613 236.623 241.838 239.288 239.1 239.838L213.844 244.908C211.106 245.457 208.44 243.683 207.891 240.945C207.341 238.207 209.115 235.541 211.853 234.992L237.11 229.922Z" fill="#FCB798"/>
<circle cx="213.129" cy="118.602" r="1.98744" fill="#361647"/>
<circle cx="227.717" cy="118.602" r="1.98744" fill="#361647"/>
<path d="M187.527 123.012V115.791C187.516 115.427 187.338 115.089 187.043 114.875C186.749 114.661 186.372 114.596 186.022 114.698C183.977 115.353 182.589 117.254 182.589 119.402C182.589 121.549 183.977 123.451 186.022 124.106C186.372 124.208 186.749 124.142 187.043 123.928C187.338 123.714 187.516 123.376 187.527 123.012Z" fill="#EF927F"/>
<circle cx="187.151" cy="119.402" r="3.44568" fill="#FCF4E6"/>
<path d="M187.211 121.793C186.722 121.192 186.813 120.309 187.413 119.82C188.014 119.332 188.897 119.422 189.386 120.023L193.42 124.981C193.909 125.582 193.818 126.465 193.217 126.954C192.616 127.443 191.733 127.352 191.244 126.751L187.211 121.793Z" fill="#FCF4E6"/>
<path d="M191.726 125.517L188.962 122.118L188.727 121.83C188.478 121.899 188.221 121.933 187.962 121.93C187.868 121.936 187.774 121.936 187.68 121.93C186.046 121.787 184.793 120.419 184.793 118.778C184.783 118.112 184.99 117.46 185.381 116.92C184.612 117.516 184.164 118.435 184.17 119.408C184.17 121.158 185.589 122.577 187.339 122.577C187.595 122.577 187.85 122.543 188.098 122.477L191.102 126.164C191.386 126.511 191.829 126.686 192.272 126.626C192.716 126.566 193.097 126.279 193.278 125.87C192.741 126.122 192.101 125.977 191.726 125.517Z" fill="white"/>
<path d="M224.907 127.128C224.904 128.477 224.365 129.77 223.407 130.721C223.29 130.838 223.166 130.944 223.043 131.05C222.134 131.81 220.987 132.227 219.803 132.226H219.597C216.944 132.213 214.745 130.167 214.54 127.522C214.54 127.381 214.54 127.24 214.54 127.099C214.543 126.838 214.648 126.588 214.834 126.405C215.017 126.218 215.267 126.114 215.528 126.117H223.942C224.205 126.121 224.454 126.231 224.636 126.421C224.817 126.611 224.914 126.866 224.907 127.128Z" fill="#962F4A"/>
<path d="M219.703 131.438C219.704 131.701 219.678 131.963 219.626 132.22H219.597C216.943 132.209 214.742 130.162 214.54 127.516C214.907 127.409 215.287 127.356 215.669 127.357C216.746 127.36 217.777 127.793 218.535 128.559C219.292 129.325 219.712 130.361 219.703 131.438Z" fill="#E1617F"/>
<path d="M223.736 126.158C223.695 127.152 222.155 127.951 220.261 127.922C218.368 127.892 216.833 127.11 216.792 126.111L223.736 126.158Z" fill="white"/>
</svg>
